<svg width="178" height="178" viewBox="0 0 178 178" fill="none" xmlns="http://www.w3.org/2000/svg">
<g clip-path="url(#clip0_1_692)">
<path fill-rule="evenodd" clip-rule="evenodd" d="M45.8698 81.666C46.7453 80.8635 47.4955 80.1678 47.89 79.798C50.2853 77.5423 56.9145 72.6614 60.3638 67.7035C62.9967 63.9219 63.7918 60.0843 60.6551 57.0574C57.8041 54.3063 53.27 54.3778 48.1767 56.2941C37.215 60.4185 23.4891 72.8639 20.3134 77.6945C19.967 78.2221 20.1122 78.9287 20.6398 79.2751C21.1648 79.6201 21.8715 79.4748 22.2179 78.9473C25.2666 74.3124 38.4569 62.3879 48.9803 58.4281C53.0937 56.881 56.7692 56.4771 59.0718 58.7C61.3454 60.8927 60.401 63.6585 58.4923 66.3999C55.1363 71.2257 48.6593 75.9421 46.3258 78.1372C44.8637 79.5141 39.1391 84.6078 38.7536 85.1626C38.2704 85.8569 38.6488 86.4028 38.7864 86.5726C38.8929 86.7044 39.4663 87.3269 40.357 86.7961C53.0622 79.2353 77.7918 76.4271 99.1619 81.9966C120.344 87.5169 138.262 101.337 137.543 127.252C137.527 127.882 138.024 128.407 138.652 128.425C139.282 128.442 139.807 127.945 139.823 127.315C140.576 100.162 121.93 85.5727 99.7387 79.7892C81.0366 74.9144 59.8424 76.3457 45.8698 81.666Z" fill="black"/>
<path fill-rule="evenodd" clip-rule="evenodd" d="M138.538 125.933C136.897 123.802 135.332 121.628 133.525 119.623C128.711 114.281 122.578 109.75 115.799 107.276C115.205 107.06 114.552 107.366 114.336 107.956C114.12 108.55 114.426 109.204 115.016 109.42C121.451 111.764 127.262 116.082 131.829 121.15C133.896 123.446 135.645 125.969 137.557 128.388C137.654 128.508 138.453 129.584 138.684 129.765C139.22 130.189 139.712 130.023 139.931 129.917C140.114 129.83 140.313 129.683 140.473 129.424C140.604 129.21 140.757 128.746 140.83 128.083C141.069 125.959 140.915 120.925 140.977 120.096C141.689 110.592 143.947 101.871 146.095 92.6293C146.235 92.0154 145.853 91.4009 145.241 91.258C144.628 91.1151 144.016 91.4984 143.873 92.1109C141.698 101.469 139.424 110.305 138.704 119.923C138.66 120.493 138.586 123.662 138.538 125.933Z" fill="black"/>
</g>
<defs>
<clipPath id="clip0_1_692">
<rect width="130" height="130" fill="white" transform="translate(65.4471) rotate(30.154)"/>
</clipPath>
</defs>
</svg>
