<svg width="86" height="85" viewBox="0 0 86 85" fill="none" xmlns="http://www.w3.org/2000/svg">
<g filter="url(#filter0_f_1_1187)">
<path d="M43.1062 59.428C52.5694 59.428 60.2409 51.9326 60.2409 42.6865C60.2409 33.4405 52.5694 25.9451 43.1062 25.9451C33.643 25.9451 25.9715 33.4405 25.9715 42.6865C25.9715 51.9326 33.643 59.428 43.1062 59.428Z" fill="#FF9696" fill-opacity="0.6"/>
</g>
<path d="M39.3156 52.9108C48.7789 52.9108 56.4504 45.4155 56.4504 36.1694C56.4504 26.9234 48.7789 19.428 39.3156 19.428C29.8524 19.428 22.1809 26.9234 22.1809 36.1694C22.1809 45.4155 29.8524 52.9108 39.3156 52.9108Z" fill="url(#paint0_linear_1_1187)"/>
<g filter="url(#filter1_f_1_1187)">
<path d="M39.3156 48.9016C46.8326 48.9016 52.9262 42.9478 52.9262 35.6034C52.9262 28.2591 46.8326 22.3053 39.3156 22.3053C31.7987 22.3053 25.7051 28.2591 25.7051 35.6034C25.7051 42.9478 31.7987 48.9016 39.3156 48.9016Z" fill="url(#paint1_linear_1_1187)"/>
<path d="M51.9262 35.6034C51.9262 42.3738 46.3023 47.9016 39.3156 47.9016C32.329 47.9016 26.7051 42.3738 26.7051 35.6034C26.7051 28.8331 32.329 23.3053 39.3156 23.3053C46.3023 23.3053 51.9262 28.8331 51.9262 35.6034Z" stroke="url(#paint2_linear_1_1187)" stroke-width="2"/>
</g>
<g filter="url(#filter2_f_1_1187)">
<path d="M39.3156 48.9016C46.8326 48.9016 52.9262 42.9478 52.9262 35.6034C52.9262 28.2591 46.8326 22.3053 39.3156 22.3053C31.7987 22.3053 25.7051 28.2591 25.7051 35.6034C25.7051 42.9478 31.7987 48.9016 39.3156 48.9016Z" fill="url(#paint3_linear_1_1187)"/>
<path d="M51.9262 35.6034C51.9262 42.3738 46.3023 47.9016 39.3156 47.9016C32.329 47.9016 26.7051 42.3738 26.7051 35.6034C26.7051 28.8331 32.329 23.3053 39.3156 23.3053C46.3023 23.3053 51.9262 28.8331 51.9262 35.6034Z" stroke="url(#paint4_linear_1_1187)" stroke-width="2"/>
</g>
<g filter="url(#filter3_f_1_1187)">
<path d="M39.3156 48.9016C46.8326 48.9016 52.9262 42.9478 52.9262 35.6034C52.9262 28.2591 46.8326 22.3053 39.3156 22.3053C31.7987 22.3053 25.7051 28.2591 25.7051 35.6034C25.7051 42.9478 31.7987 48.9016 39.3156 48.9016Z" fill="url(#paint5_linear_1_1187)"/>
<path d="M51.9262 35.6034C51.9262 42.3738 46.3023 47.9016 39.3156 47.9016C32.329 47.9016 26.7051 42.3738 26.7051 35.6034C26.7051 28.8331 32.329 23.3053 39.3156 23.3053C46.3023 23.3053 51.9262 28.8331 51.9262 35.6034Z" stroke="url(#paint6_linear_1_1187)" stroke-width="2"/>
</g>
<g filter="url(#filter4_d_1_1187)">
<path d="M44.5696 35.5808L37.8559 30.6682C37.0623 30.0852 35.9269 30.6399 35.9269 31.6134V41.4443C35.9269 42.4178 37.0623 42.9668 37.8559 42.3895L44.5696 37.4768C45.2126 36.9958 45.2126 36.0562 44.5696 35.5808Z" fill="url(#paint7_linear_1_1187)" shape-rendering="crispEdges"/>
</g>
<defs>
<filter id="filter0_f_1_1187" x="0.971497" y="0.945068" width="84.2694" height="83.4829" filterUnits="userSpaceOnUse" color-interpolation-filters="sRGB">
<feFlood flood-opacity="0" result="BackgroundImageFix"/>
<feBlend mode="normal" in="SourceGraphic" in2="BackgroundImageFix" result="shape"/>
<feGaussianBlur stdDeviation="12.5" result="effect1_foregroundBlur_1_1187"/>
</filter>
<filter id="filter1_f_1_1187" x="15.7051" y="12.3053" width="47.2211" height="46.5963" filterUnits="userSpaceOnUse" color-interpolation-filters="sRGB">
<feFlood flood-opacity="0" result="BackgroundImageFix"/>
<feBlend mode="normal" in="SourceGraphic" in2="BackgroundImageFix" result="shape"/>
<feGaussianBlur stdDeviation="5" result="effect1_foregroundBlur_1_1187"/>
</filter>
<filter id="filter2_f_1_1187" x="15.7051" y="12.3053" width="47.2211" height="46.5963" filterUnits="userSpaceOnUse" color-interpolation-filters="sRGB">
<feFlood flood-opacity="0" result="BackgroundImageFix"/>
<feBlend mode="normal" in="SourceGraphic" in2="BackgroundImageFix" result="shape"/>
<feGaussianBlur stdDeviation="5" result="effect1_foregroundBlur_1_1187"/>
</filter>
<filter id="filter3_f_1_1187" x="15.7051" y="12.3053" width="47.2211" height="46.5963" filterUnits="userSpaceOnUse" color-interpolation-filters="sRGB">
<feFlood flood-opacity="0" result="BackgroundImageFix"/>
<feBlend mode="normal" in="SourceGraphic" in2="BackgroundImageFix" result="shape"/>
<feGaussianBlur stdDeviation="5" result="effect1_foregroundBlur_1_1187"/>
</filter>
<filter id="filter4_d_1_1187" x="31.9269" y="30.4303" width="17.1249" height="20.1946" filterUnits="userSpaceOnUse" color-interpolation-filters="sRGB">
<feFlood flood-opacity="0" result="BackgroundImageFix"/>
<feColorMatrix in="SourceAlpha" type="matrix" values="0 0 0 0 0 0 0 0 0 0 0 0 0 0 0 0 0 0 127 0" result="hardAlpha"/>
<feOffset dy="4"/>
<feGaussianBlur stdDeviation="2"/>
<feComposite in2="hardAlpha" operator="out"/>
<feColorMatrix type="matrix" values="0 0 0 0 0 0 0 0 0 0 0 0 0 0 0 0 0 0 0.19 0"/>
<feBlend mode="normal" in2="BackgroundImageFix" result="effect1_dropShadow_1_1187"/>
<feBlend mode="normal" in="SourceGraphic" in2="effect1_dropShadow_1_1187" result="shape"/>
</filter>
<linearGradient id="paint0_linear_1_1187" x1="33.0942" y1="54.0083" x2="44.5445" y2="19.6064" gradientUnits="userSpaceOnUse">
<stop stop-color="#FF927A"/>
<stop offset="1" stop-color="#F00000"/>
</linearGradient>
<linearGradient id="paint1_linear_1_1187" x1="34.3738" y1="49.7733" x2="43.4691" y2="22.447" gradientUnits="userSpaceOnUse">
<stop stop-color="#FF927A"/>
<stop offset="1" stop-color="#F00000"/>
</linearGradient>
<linearGradient id="paint2_linear_1_1187" x1="52.9262" y1="27.8598" x2="39.7628" y2="49.1777" gradientUnits="userSpaceOnUse">
<stop stop-color="white"/>
<stop offset="1" stop-color="white" stop-opacity="0"/>
</linearGradient>
<linearGradient id="paint3_linear_1_1187" x1="34.3738" y1="49.7733" x2="43.4691" y2="22.447" gradientUnits="userSpaceOnUse">
<stop stop-color="#FF927A"/>
<stop offset="1" stop-color="#F00000"/>
</linearGradient>
<linearGradient id="paint4_linear_1_1187" x1="52.9262" y1="27.8598" x2="39.7628" y2="49.1777" gradientUnits="userSpaceOnUse">
<stop stop-color="white"/>
<stop offset="1" stop-color="white" stop-opacity="0"/>
</linearGradient>
<linearGradient id="paint5_linear_1_1187" x1="34.3738" y1="49.7733" x2="43.4691" y2="22.447" gradientUnits="userSpaceOnUse">
<stop stop-color="#FF927A"/>
<stop offset="1" stop-color="#F00000"/>
</linearGradient>
<linearGradient id="paint6_linear_1_1187" x1="52.9262" y1="27.8598" x2="39.7628" y2="49.1777" gradientUnits="userSpaceOnUse">
<stop stop-color="white"/>
<stop offset="1" stop-color="white" stop-opacity="0"/>
</linearGradient>
<linearGradient id="paint7_linear_1_1187" x1="40.4894" y1="30.4303" x2="40.4894" y2="42.6249" gradientUnits="userSpaceOnUse">
<stop stop-color="white"/>
<stop offset="1" stop-color="white" stop-opacity="0.57"/>
</linearGradient>
</defs>
</svg>
