<svg width="112" height="113" viewBox="0 0 112 113" fill="none" xmlns="http://www.w3.org/2000/svg">
<circle cx="56" cy="56.7106" r="56" fill="#66ADD8"/>
<path d="M21.561 42.3991C21.3055 41.6384 21.7151 40.8145 22.4759 40.559L53.7999 30.0386C54.5607 29.783 55.3845 30.1926 55.6401 30.9534L69.3653 71.8195C69.6208 72.5803 69.2112 73.4042 68.4504 73.6597L37.1264 84.1801C36.3657 84.4356 35.5418 84.026 35.2863 83.2653L21.561 42.3991Z" fill="#001826"/>
<path d="M17.9662 40.6016C17.7107 39.8409 18.1203 39.017 18.8811 38.7615L50.205 28.241C50.9658 27.9855 51.7897 28.3951 52.0452 29.1559L65.7704 70.022C66.026 70.7828 65.6164 71.6067 64.8556 71.8622L33.5316 82.3826C32.7708 82.6381 31.9469 82.2285 31.6914 81.4677L17.9662 40.6016Z" fill="white"/>
<path fill-rule="evenodd" clip-rule="evenodd" d="M18.4184 37.384L49.7424 26.8635C51.264 26.3525 52.9117 27.1717 53.4227 28.6933L67.1479 69.5594C67.659 71.0809 66.8398 72.7287 65.3182 73.2397L33.9942 83.7601C32.4727 84.2711 30.8249 83.4519 30.3139 81.9304L16.5887 41.0643C16.0777 39.5427 16.8969 37.895 18.4184 37.384ZM18.8811 38.7615C18.1203 39.017 17.7107 39.8409 17.9662 40.6016L31.6914 81.4677C31.9469 82.2285 32.7708 82.6381 33.5316 82.3826L64.8556 71.8622C65.6164 71.6067 66.026 70.7828 65.7704 70.022L52.0452 29.1559C51.7897 28.3951 50.9658 27.9855 50.205 28.241L18.8811 38.7615Z" fill="#001826"/>
<path fill-rule="evenodd" clip-rule="evenodd" d="M27.3464 46.5367C27.2187 46.1563 27.4235 45.7443 27.8039 45.6166L46.4621 39.35C46.8425 39.2223 47.2545 39.4271 47.3822 39.8075C47.51 40.1879 47.3052 40.5998 46.9248 40.7276L28.2665 46.9941C27.8861 47.1218 27.4742 46.917 27.3464 46.5367Z" fill="#001826"/>
<path fill-rule="evenodd" clip-rule="evenodd" d="M28.8342 50.967C28.7065 50.5866 28.9113 50.1747 29.2917 50.0469L47.9499 43.7804C48.3303 43.6526 48.7422 43.8574 48.87 44.2378C48.9978 44.6182 48.793 45.0301 48.4126 45.1579L29.7543 51.4244C29.3739 51.5522 28.962 51.3474 28.8342 50.967Z" fill="#001826"/>
<path fill-rule="evenodd" clip-rule="evenodd" d="M30.3226 55.3974C30.1948 55.017 30.3996 54.6051 30.78 54.4773L49.4382 48.2108C49.8186 48.083 50.2306 48.2878 50.3583 48.6682C50.4861 49.0486 50.2813 49.4605 49.9009 49.5883L31.2426 55.8548C30.8622 55.9826 30.4503 55.7778 30.3226 55.3974Z" fill="#001826"/>
<path fill-rule="evenodd" clip-rule="evenodd" d="M31.8104 59.8276C31.6826 59.4473 31.8874 59.0353 32.2678 58.9076L50.926 52.641C51.3064 52.5133 51.7184 52.7181 51.8461 53.0985C51.9739 53.4789 51.7691 53.8908 51.3887 54.0185L32.7304 60.2851C32.35 60.4128 31.9381 60.208 31.8104 59.8276Z" fill="#001826"/>
<path fill-rule="evenodd" clip-rule="evenodd" d="M33.2981 64.2578C33.1704 63.8774 33.3752 63.4655 33.7556 63.3377L52.4138 57.0712C52.7942 56.9434 53.2062 57.1482 53.3339 57.5286C53.4617 57.909 53.2569 58.3209 52.8765 58.4487L34.2182 64.7152C33.8378 64.843 33.4259 64.6382 33.2981 64.2578Z" fill="#001826"/>
<path fill-rule="evenodd" clip-rule="evenodd" d="M43.6961 65.6895C43.8241 66.0698 43.6196 66.4819 43.2393 66.6099L35.7065 69.1454C35.3262 69.2734 34.9141 69.0689 34.7861 68.6886C34.6581 68.3083 34.8626 67.8962 35.2429 67.7682L42.7757 65.2327C43.156 65.1047 43.5681 65.3092 43.6961 65.6895Z" fill="#001826"/>
<path d="M58.434 30.9341C58.6454 30.1599 59.4444 29.7037 60.2186 29.9151L92.0947 38.6207C92.8689 38.8321 93.3251 39.6311 93.1136 40.4053L81.7561 81.9917C81.5447 82.7659 80.7457 83.2221 79.9715 83.0107L48.0954 74.3051C47.3212 74.0937 46.865 73.2947 47.0765 72.5205L58.434 30.9341Z" fill="white"/>
<path fill-rule="evenodd" clip-rule="evenodd" d="M60.6014 28.5134L92.4775 37.2189C94.0259 37.6418 94.9383 39.2398 94.5154 40.7882L83.1579 82.3746C82.735 83.9229 81.137 84.8353 79.5887 84.4125L47.7126 75.7069C46.1642 75.284 45.2518 73.686 45.6747 72.1377L57.0322 30.5513C57.455 29.0029 59.053 28.0905 60.6014 28.5134ZM60.2186 29.9151C59.4444 29.7037 58.6454 30.1599 58.434 30.9341L47.0765 72.5205C46.865 73.2947 47.3212 74.0937 48.0954 74.3051L79.9715 83.0107C80.7457 83.2221 81.5447 82.7659 81.7561 81.9917L93.1136 40.4053C93.3251 39.6311 92.8689 38.8321 92.0947 38.6207L60.2186 29.9151Z" fill="#001826"/>
<path fill-rule="evenodd" clip-rule="evenodd" d="M73.9826 67.2096C74.2633 67.289 74.4692 67.5286 74.5056 67.818L75.4029 74.9537C75.453 75.3518 75.1708 75.7152 74.7727 75.7653C74.3746 75.8153 74.0112 75.5332 73.9612 75.135L73.2777 69.7001L69.812 74.0146C69.5607 74.3275 69.1033 74.3774 68.7905 74.1261C68.4777 73.8748 68.4278 73.4174 68.6791 73.1046L73.2183 67.4537C73.401 67.2263 73.7019 67.1301 73.9826 67.2096Z" fill="#001826"/>
<path fill-rule="evenodd" clip-rule="evenodd" d="M70.5673 71.0371C70.673 70.65 71.0725 70.4219 71.4596 70.5276L74.4915 71.3556C74.8786 71.4614 75.1067 71.8609 75.001 72.2479C74.8953 72.635 74.4958 72.8631 74.1087 72.7574L71.0767 71.9294C70.6897 71.8237 70.4616 71.4242 70.5673 71.0371Z" fill="#001826"/>
<path fill-rule="evenodd" clip-rule="evenodd" d="M78.3397 71.1146C78.7268 71.2203 78.9549 71.6198 78.8491 72.0069L78.2781 74.0979C78.1724 74.485 77.7729 74.7131 77.3858 74.6074C76.9987 74.5017 76.7706 74.1022 76.8763 73.7151L77.4473 71.6241C77.5531 71.237 77.9526 71.0089 78.3397 71.1146Z" fill="#001826"/>
<path fill-rule="evenodd" clip-rule="evenodd" d="M79.6089 73.3377C79.5032 73.7248 79.1037 73.9529 78.7166 73.8472L76.6256 73.2762C76.2385 73.1704 76.0104 72.7709 76.1161 72.3838C76.2219 71.9967 76.6214 71.7686 77.0084 71.8744L79.0994 72.4454C79.4865 72.5511 79.7146 72.9506 79.6089 73.3377Z" fill="#001826"/>
<path d="M79.6088 54.0701C80.2422 53.7085 80.4625 52.9018 80.1009 52.2684C79.7392 51.635 78.9326 51.4148 78.2992 51.7764L70.5365 56.2086C69.8395 56.6065 68.952 56.3641 68.554 55.6672L66.0694 51.3155C65.7078 50.6822 64.9011 50.4619 64.2677 50.8235C63.6344 51.1851 63.4141 51.9918 63.7757 52.6252L66.9799 58.2372C66.9804 58.238 66.9801 58.2391 66.9793 58.2396C66.9784 58.2401 66.9781 58.2412 66.9786 58.2421L68.2864 60.5327C68.2869 60.5335 68.288 60.5338 68.2889 60.5333L68.2889 60.5333C68.2898 60.5328 68.2908 60.5331 68.2913 60.534C68.2918 60.5348 68.2929 60.5351 68.2937 60.5346L70.5844 59.2268C70.5852 59.2263 70.5855 59.2252 70.585 59.2244C70.5845 59.2235 70.5848 59.2224 70.5857 59.222L79.6088 54.0701Z" fill="white"/>
<path fill-rule="evenodd" clip-rule="evenodd" d="M69.8159 54.9467L77.5787 50.5145C78.909 49.7549 80.6032 50.2176 81.3628 51.5479C82.1223 52.8783 81.6596 54.5725 80.3293 55.332L71.3918 60.435C71.3637 60.4538 71.3347 60.4717 71.3049 60.4887L69.0142 61.7966C68.668 61.9942 68.2748 62.0341 67.9178 61.9388C67.5533 61.8429 67.2261 61.6063 67.0245 61.2532L65.7167 58.9626C65.6995 58.9325 65.6835 58.902 65.6686 58.8712L62.5138 53.3457C61.7542 52.0153 62.2169 50.3212 63.5472 49.5616C64.8776 48.802 66.5718 49.2647 67.3313 50.595L69.8159 54.9467ZM80.1009 52.2684C80.4625 52.9018 80.2422 53.7085 79.6088 54.0701L70.5857 59.222C70.5848 59.2224 70.5845 59.2235 70.585 59.2244C70.5852 59.2247 70.5853 59.225 70.5853 59.2253C70.5852 59.2259 70.5849 59.2265 70.5844 59.2268L68.2937 60.5346C68.2929 60.5351 68.2918 60.5348 68.2913 60.534C68.2908 60.5331 68.2898 60.5328 68.2889 60.5333L68.2889 60.5333C68.288 60.5338 68.2869 60.5335 68.2864 60.5327L66.9786 58.2421C66.9781 58.2412 66.9784 58.2401 66.9793 58.2396C66.9801 58.2391 66.9804 58.238 66.9799 58.2372L63.7757 52.6252C63.4141 51.9918 63.6344 51.1851 64.2677 50.8235C64.9011 50.4619 65.7078 50.6822 66.0694 51.3156L68.554 55.6672C68.952 56.3641 69.8395 56.6065 70.5365 56.2086L78.2992 51.7764C78.9326 51.4148 79.7392 51.6351 80.1009 52.2684Z" fill="#001826"/>
</svg>
