<svg width="66" height="65" viewBox="0 0 66 65" fill="none" xmlns="http://www.w3.org/2000/svg">
<g filter="url(#filter0_f_1_1171)">
<path d="M32.9948 49.428C43.0056 49.428 51.1209 41.8568 51.1209 32.5173C51.1209 23.1778 43.0056 15.6067 32.9948 15.6067C22.984 15.6067 14.8686 23.1778 14.8686 32.5173C14.8686 41.8568 22.984 49.428 32.9948 49.428Z" fill="#AD69F0" fill-opacity="0.6"/>
</g>
<path d="M31.187 43.2493C41.1978 43.2493 49.3131 35.6781 49.3131 26.3386C49.3131 16.9991 41.1978 9.42798 31.187 9.42798C21.1762 9.42798 13.0609 16.9991 13.0609 26.3386C13.0609 35.6781 21.1762 43.2493 31.187 43.2493Z" fill="url(#paint0_linear_1_1171)"/>
<g filter="url(#filter1_f_1_1171)">
<path d="M45.729 26.3386C45.729 33.7981 39.2402 39.8834 31.187 39.8834C23.1339 39.8834 16.6451 33.7981 16.6451 26.3386C16.6451 18.8792 23.1339 12.7939 31.187 12.7939C39.2402 12.7939 45.729 18.8792 45.729 26.3386Z" stroke="url(#paint1_linear_1_1171)" stroke-width="0.656593"/>
</g>
<g filter="url(#filter2_f_1_1171)">
<path d="M45.729 26.3386C45.729 33.7981 39.2402 39.8834 31.187 39.8834C23.1339 39.8834 16.6451 33.7981 16.6451 26.3386C16.6451 18.8792 23.1339 12.7939 31.187 12.7939C39.2402 12.7939 45.729 18.8792 45.729 26.3386Z" stroke="url(#paint2_linear_1_1171)" stroke-width="0.656593"/>
</g>
<g filter="url(#filter3_d_1_1171)">
<path d="M31.138 31.4096C33.8159 31.4096 35.9974 29.3743 35.9974 26.876C35.9974 24.3778 33.8159 22.3425 31.138 22.3425C28.4601 22.3425 26.2786 24.3778 26.2786 26.876C26.2786 29.3743 28.4601 31.4096 31.138 31.4096ZM27.4612 26.876C27.4612 24.978 29.1158 23.4402 31.1441 23.4402C33.1725 23.4402 34.827 24.9837 34.827 26.876C34.827 28.7683 33.1725 30.3119 31.1441 30.3119C29.1097 30.3119 27.4612 28.7683 27.4612 26.876Z" fill="url(#paint3_linear_1_1171)"/>
<path d="M35.9913 34.4051H26.2971C24.4771 34.4051 22.9941 33.0216 22.9941 31.3237V22.4225C22.9941 20.7246 24.4771 19.3411 26.2971 19.3411H35.9913C37.8113 19.3411 39.2942 20.7246 39.2942 22.4225V31.3294C39.2881 33.0274 37.8113 34.4051 35.9913 34.4051ZM26.2909 20.4673C25.1328 20.4673 24.1952 21.342 24.1952 22.4225V31.3294C24.1952 32.4099 25.1328 33.2846 26.2909 33.2846H35.9852C37.1434 33.2846 38.0809 32.4099 38.0809 31.3294V22.4225C38.0809 21.342 37.1434 20.4673 35.9852 20.4673H26.2909Z" fill="url(#paint4_linear_1_1171)"/>
</g>
<defs>
<filter id="filter0_f_1_1171" x="0.0952396" y="0.833338" width="65.799" height="63.368" filterUnits="userSpaceOnUse" color-interpolation-filters="sRGB">
<feFlood flood-opacity="0" result="BackgroundImageFix"/>
<feBlend mode="normal" in="SourceGraphic" in2="BackgroundImageFix" result="shape"/>
<feGaussianBlur stdDeviation="7.38668" result="effect1_foregroundBlur_1_1171"/>
</filter>
<filter id="filter1_f_1_1171" x="13.3621" y="9.51091" width="35.6498" height="33.6554" filterUnits="userSpaceOnUse" color-interpolation-filters="sRGB">
<feFlood flood-opacity="0" result="BackgroundImageFix"/>
<feBlend mode="normal" in="SourceGraphic" in2="BackgroundImageFix" result="shape"/>
<feGaussianBlur stdDeviation="1.47734" result="effect1_foregroundBlur_1_1171"/>
</filter>
<filter id="filter2_f_1_1171" x="11.3924" y="7.54113" width="39.5894" height="37.595" filterUnits="userSpaceOnUse" color-interpolation-filters="sRGB">
<feFlood flood-opacity="0" result="BackgroundImageFix"/>
<feBlend mode="normal" in="SourceGraphic" in2="BackgroundImageFix" result="shape"/>
<feGaussianBlur stdDeviation="2.46223" result="effect1_foregroundBlur_1_1171"/>
</filter>
<filter id="filter3_d_1_1171" x="22.6658" y="19.3411" width="17.6133" height="16.7056" filterUnits="userSpaceOnUse" color-interpolation-filters="sRGB">
<feFlood flood-opacity="0" result="BackgroundImageFix"/>
<feColorMatrix in="SourceAlpha" type="matrix" values="0 0 0 0 0 0 0 0 0 0 0 0 0 0 0 0 0 0 127 0" result="hardAlpha"/>
<feOffset dx="0.328297" dy="0.98489"/>
<feGaussianBlur stdDeviation="0.328297"/>
<feComposite in2="hardAlpha" operator="out"/>
<feColorMatrix type="matrix" values="0 0 0 0 0 0 0 0 0 0 0 0 0 0 0 0 0 0 0.14 0"/>
<feBlend mode="normal" in2="BackgroundImageFix" result="effect1_dropShadow_1_1171"/>
<feBlend mode="normal" in="SourceGraphic" in2="effect1_dropShadow_1_1171" result="shape"/>
</filter>
<linearGradient id="paint0_linear_1_1171" x1="38.3652" y1="10.0867" x2="24.781" y2="45.4039" gradientUnits="userSpaceOnUse">
<stop stop-color="#3A55D2"/>
<stop offset="0.1308" stop-color="#4651D5"/>
<stop offset="0.3649" stop-color="#6548DE"/>
<stop offset="1" stop-color="#FF007A"/>
</linearGradient>
<linearGradient id="paint1_linear_1_1171" x1="39.7521" y1="14.7925" x2="32.2093" y2="40.5115" gradientUnits="userSpaceOnUse">
<stop stop-color="#CAC2FF"/>
<stop offset="1" stop-color="white" stop-opacity="0"/>
</linearGradient>
<linearGradient id="paint2_linear_1_1171" x1="39.7521" y1="14.7925" x2="32.2093" y2="40.5115" gradientUnits="userSpaceOnUse">
<stop stop-color="#CAC2FF"/>
<stop offset="1" stop-color="white" stop-opacity="0"/>
</linearGradient>
<linearGradient id="paint3_linear_1_1171" x1="31.138" y1="22.3425" x2="31.138" y2="31.4096" gradientUnits="userSpaceOnUse">
<stop stop-color="white" stop-opacity="0.88"/>
<stop offset="1" stop-color="white" stop-opacity="0.85"/>
</linearGradient>
<linearGradient id="paint4_linear_1_1171" x1="31.1442" y1="19.3411" x2="31.1442" y2="34.4051" gradientUnits="userSpaceOnUse">
<stop stop-color="white"/>
<stop offset="0.0001" stop-color="white"/>
<stop offset="1" stop-color="white" stop-opacity="0.88"/>
</linearGradient>
</defs>
</svg>
