<svg width="82" height="82" viewBox="0 0 82 82" fill="none" xmlns="http://www.w3.org/2000/svg">
<g filter="url(#filter0_f_1_1180)">
<path d="M40.6644 57.428C49.7862 57.428 57.1809 50.0995 57.1809 41.0593C57.1809 32.0192 49.7862 24.6907 40.6644 24.6907C31.5425 24.6907 24.1478 32.0192 24.1478 41.0593C24.1478 50.0995 31.5425 57.428 40.6644 57.428Z" fill="#41BEF1" fill-opacity="0.45"/>
</g>
<path d="M36.6632 52.1987C46.3516 52.1987 54.2056 44.415 54.2056 34.8133C54.2056 25.2117 46.3516 17.428 36.6632 17.428C26.9749 17.428 19.1209 25.2117 19.1209 34.8133C19.1209 44.415 26.9749 52.1987 36.6632 52.1987Z" fill="url(#paint0_linear_1_1180)"/>
<g filter="url(#filter1_f_1_1180)">
<path d="M49.6996 34.8133C49.6996 41.9352 43.8715 47.724 36.6632 47.724C29.4549 47.724 23.6268 41.9352 23.6268 34.8133C23.6268 27.6913 29.4549 21.9025 36.6632 21.9025C43.8715 21.9025 49.6996 27.6913 49.6996 34.8133Z" stroke="url(#paint1_linear_1_1180)" stroke-width="2"/>
</g>
<g filter="url(#filter2_f_1_1180)">
<path d="M49.6996 34.8133C49.6996 41.9352 43.8715 47.724 36.6632 47.724C29.4549 47.724 23.6268 41.9352 23.6268 34.8133C23.6268 27.6913 29.4549 21.9025 36.6632 21.9025C43.8715 21.9025 49.6996 27.6913 49.6996 34.8133Z" stroke="url(#paint2_linear_1_1180)" stroke-width="2"/>
</g>
<g filter="url(#filter3_d_1_1180)">
<path d="M45.5471 30.6287C44.9837 30.852 44.3847 31.0107 43.7561 31.0812C44.4203 30.6933 44.9362 30.0938 45.209 29.3768C45.2268 29.3297 45.1734 29.2886 45.1319 29.3121C44.5033 29.6589 43.8213 29.9116 43.0919 30.0527C42.4692 29.4062 41.5855 29.0006 40.607 29.0006C38.727 29.0006 37.2029 30.4876 37.2029 32.3213C37.2029 32.5799 37.2326 32.8327 37.2919 33.0795C34.469 32.9385 31.9663 31.6278 30.288 29.6295C30.2821 29.6177 30.2643 29.6236 30.2583 29.6295C29.9737 30.1173 29.8136 30.6757 29.8136 31.2752C29.8136 32.4036 30.3888 33.3969 31.2724 34.0023C31.2902 34.014 31.2784 34.0434 31.2606 34.0375C30.7387 34.0082 30.2524 33.8671 29.8195 33.6379C29.8076 33.632 29.7898 33.6379 29.7958 33.6555C29.8017 33.8025 29.8551 34.4548 30.027 34.8721C30.454 35.9066 31.3792 36.7 32.5297 36.9292C32.245 37.0056 31.9426 37.0468 31.6283 37.0468C31.4207 37.0468 31.2191 37.0291 31.0174 36.988C31.0056 36.988 30.9937 36.9998 30.9937 37.0115C31.4326 38.2987 32.6542 39.239 34.1072 39.2861C34.125 39.2861 34.1369 39.3096 34.1191 39.3213C32.9626 40.1912 31.5097 40.7084 29.9322 40.7084C29.6594 40.7084 29.3866 40.6908 29.1197 40.6614C30.626 41.6018 32.417 42.1542 34.3385 42.1542C36.9894 42.1542 39.1303 41.2491 40.7197 39.8738C42.3209 38.4867 43.3646 36.6118 43.7976 34.7076C43.9518 34.0375 44.0289 33.3616 44.0289 32.7034C44.0289 32.5623 44.0229 32.4154 44.017 32.2743C44.6338 31.8394 45.1735 31.3046 45.6123 30.6992C45.642 30.6639 45.5945 30.6051 45.5471 30.6287Z" fill="#C9E7FF"/>
<path d="M40.7197 39.8738C42.3209 38.4867 43.3646 36.6118 43.7976 34.7076C43.9518 34.0375 44.0289 33.3616 44.0289 32.7034C44.0289 32.5623 44.0229 32.4154 44.017 32.2743C44.2811 32.0881 44.5311 31.8835 44.7651 31.6629C44.4645 31.7357 44.1559 31.7911 43.8397 31.8265L43.7459 31.5437M40.7197 39.8738L40.2289 39.3067C40.2288 39.3068 40.2287 39.3068 40.2286 39.3069M40.7197 39.8738C39.1303 41.2491 36.9894 42.1542 34.3385 42.1542C33.0213 42.1542 31.7655 41.8946 30.6206 41.4284C31.147 41.3824 31.6582 41.2841 32.1485 41.1388M40.7197 39.8738L40.2286 39.3069M40.2286 39.3069C41.7008 38.0316 42.6662 36.301 43.0662 34.5413L43.0667 34.5394C43.2085 33.9231 43.2789 33.3036 43.2789 32.7034C43.2789 32.5804 43.2737 32.4485 43.2677 32.3058L43.2505 31.8971L43.5848 31.6614C43.6392 31.623 43.6929 31.5838 43.7459 31.5437M40.2286 39.3069C38.7747 40.5649 36.8079 41.4042 34.3385 41.4042C33.5828 41.4042 32.8492 41.3118 32.1485 41.1388M43.7459 31.5437L43.4787 30.7376M43.7459 31.5437C43.7651 31.5293 43.7841 31.5147 43.8031 31.5C43.8485 31.4648 43.8935 31.4289 43.9379 31.3925L43.7561 31.0812L43.7112 30.681C43.6565 30.6952 43.6015 30.7089 43.5463 30.722C43.5238 30.7273 43.5012 30.7325 43.4787 30.7376M43.4787 30.7376C43.3977 30.756 43.3163 30.7732 43.2343 30.789L42.8343 30.8664L42.5517 30.573C42.0656 30.0682 41.3749 29.7506 40.607 29.7506C39.1236 29.7506 37.9529 30.9192 37.9529 32.3213C37.9529 32.5221 37.9759 32.7159 38.0211 32.9043L38.2552 33.8786L37.2544 33.8286C34.6701 33.6995 32.3313 32.6578 30.5762 31.0203M43.4787 30.7376L43.3778 30.4336C43.6771 30.2588 43.9365 30.03 44.1429 29.762C43.8047 29.885 43.4541 29.9826 43.0919 30.0527C42.4692 29.4062 41.5855 29.0006 40.607 29.0006C38.727 29.0006 37.2029 30.4876 37.2029 32.3213C37.2029 32.322 37.2029 32.3226 37.2029 32.3233C37.245 32.326 37.2871 32.3284 37.3293 32.3305L37.2919 33.0795L36.5626 33.2547C36.5431 33.1736 36.5263 33.0921 36.512 33.0101C34.2808 32.7232 32.2898 31.7008 30.8056 30.1976C30.6841 30.4528 30.6053 30.7286 30.5762 31.0203M30.5762 31.0203C30.5678 31.104 30.5636 31.189 30.5636 31.2752C30.5636 32.1381 31.0013 32.9062 31.6938 33.3818M30.5762 31.0203C30.3546 30.8136 30.1423 30.5973 29.9399 30.3722C29.8574 30.6591 29.8136 30.9615 29.8136 31.2752C29.8136 31.9329 30.009 32.5448 30.347 33.0606C30.6401 33.1898 30.9608 33.2695 31.3028 33.2887L31.4017 33.2943L31.4958 33.3254C31.4319 33.3043 31.367 33.2925 31.3027 33.2892C31.1479 33.2813 30.9969 33.3229 30.8713 33.4025C30.8112 33.4405 30.7609 33.4843 30.7192 33.5306C30.8828 33.7032 31.0651 33.8592 31.2629 33.9957C31.266 33.9979 31.2692 34 31.2723 34.0022C31.2723 34.0022 31.2724 34.0022 31.2724 34.0023M31.6938 33.3818C32.052 33.6242 32.0761 34.0338 31.9839 34.2849C31.9361 34.4153 31.8403 34.5643 31.6736 34.6698C31.5335 34.7586 31.3631 34.8019 31.1897 34.7847M31.6938 33.3818C31.6946 33.3824 31.6955 33.383 31.6963 33.3836L31.2724 34.0023M31.6938 33.3818C31.6911 33.38 31.6885 33.3783 31.6859 33.3765L31.2724 34.0023M31.2724 34.0023C31.2902 34.014 31.2784 34.0434 31.2606 34.0375M31.2606 34.0375C31.2569 34.0373 31.2532 34.0371 31.2496 34.0369C31.2493 34.0369 31.249 34.0369 31.2488 34.0369C31.0162 34.023 30.7908 33.987 30.574 33.9308C30.5788 33.9685 30.5843 34.0083 30.5906 34.0495C30.6137 34.2016 30.6434 34.3445 30.6769 34.4594C30.7207 34.5169 30.7758 34.5706 30.8439 34.6178M31.2606 34.0375L31.0253 34.7497C31.0799 34.7677 31.135 34.7792 31.1897 34.7847M31.2606 34.0375L31.2184 34.7864C31.2089 34.7858 31.1993 34.7853 31.1897 34.7847M30.8439 34.6178C30.7925 34.5825 30.7418 34.546 30.692 34.5084C30.7013 34.5367 30.7108 34.5628 30.7205 34.5864C30.7421 34.6386 30.7653 34.6901 30.7901 34.7408M30.8439 34.6178C30.8455 34.6189 30.847 34.62 30.8486 34.621M30.8439 34.6178C30.8455 34.6189 30.847 34.62 30.8486 34.621L30.8486 34.621M30.7901 34.7408C30.6882 34.7247 30.5876 34.7051 30.4883 34.682L30.027 34.8721M30.7901 34.7408C31.1487 35.4732 31.8362 36.0263 32.6762 36.1937L32.7241 37.6536C32.5882 37.6901 32.4492 37.7199 32.3076 37.7427M30.7901 34.7408C30.9213 34.7614 31.0546 34.7761 31.1897 34.7847M30.027 34.8721L30.4879 34.6819C30.2908 34.6361 30.0992 34.5766 29.914 34.5045C29.9442 34.6344 29.9815 34.7615 30.027 34.8721ZM30.027 34.8721C30.2477 35.4066 30.6013 35.8768 31.0503 36.238H31.0932L31.1674 36.2531C31.3131 36.2829 31.4639 36.2968 31.6283 36.2968C31.877 36.2968 32.1141 36.2642 32.3353 36.2049L32.5297 36.9292L32.3832 37.6648C32.3205 37.6523 32.2585 37.6385 32.197 37.6233C32.2326 37.6642 32.2695 37.704 32.3076 37.7427M32.3076 37.7427C32.0868 37.7783 31.8598 37.7968 31.6283 37.7968C31.546 37.7968 31.4635 37.7945 31.3807 37.7895C31.7876 38.3926 32.3896 38.8591 33.0989 39.1021C33.2964 38.9856 33.4865 38.8587 33.6682 38.722L33.6865 38.7082L33.7056 38.6956C33.693 38.7039 33.6806 38.7127 33.6683 38.722C33.5539 38.8085 33.4544 38.9372 33.4066 39.103C33.3985 39.1312 33.3922 39.1593 33.3876 39.187C33.6142 39.243 33.8499 39.2767 34.0921 39.2855C34.0933 39.2856 34.0944 39.2856 34.0955 39.2857C34.0994 39.2858 34.1033 39.2859 34.1072 39.2861M32.3076 37.7427C32.7685 38.2104 33.4098 38.5119 34.1269 38.5363M34.1072 39.2861C34.125 39.2861 34.1369 39.3096 34.1191 39.3213M34.1072 39.2861L34.1315 38.5365C34.1299 38.5364 34.1284 38.5364 34.1269 38.5363M34.1072 39.2861V38.5361C34.1138 38.5361 34.1203 38.5361 34.1269 38.5363M34.1191 39.3213C34.1151 39.3243 34.1112 39.3273 34.1072 39.3302C34.1067 39.3306 34.1062 39.331 34.1057 39.3313C33.9158 39.4735 33.7178 39.6062 33.5127 39.7286C33.6335 39.8982 33.8324 40.0267 34.0797 40.0356M34.1191 39.3213L34.5325 39.9471C34.5435 39.9398 34.5544 39.9322 34.5651 39.9243M34.1191 39.3213L34.5699 39.9207C34.5683 39.9219 34.5667 39.9231 34.5651 39.9243M34.0797 40.0356C33.7733 40.0254 33.4751 39.9826 33.1887 39.9104C32.4436 40.3022 31.6148 40.5636 30.735 40.6632C31.1878 40.8583 31.6602 41.0181 32.1485 41.1388M34.0797 40.0356C34.0808 40.0356 34.0819 40.0356 34.083 40.0357L34.0861 40.0358M34.0797 40.0356C34.0818 40.0356 34.084 40.0357 34.0861 40.0358M32.1485 41.1388C33.033 40.8766 33.8497 40.4615 34.5651 39.9243M34.5651 39.9243C34.69 39.8321 34.797 39.6949 34.8478 39.5187C34.901 39.3345 34.8782 39.158 34.822 39.0187C34.7193 38.7642 34.4645 38.5445 34.1269 38.5363M34.0861 40.0358L34.0951 40.0361H34.1072C34.1001 40.0361 34.0931 40.036 34.0861 40.0358ZM29.8195 33.6379L29.8137 33.6495L29.811 33.6549L29.7971 33.683C29.8038 33.8018 29.8288 34.0877 29.8875 34.3817C29.9814 34.3719 30.0775 34.3432 30.1706 34.2905C30.2193 34.2629 30.2678 34.2279 30.3129 34.1853C30.1425 34.0217 29.9862 33.8438 29.8462 33.6535C29.8455 33.6526 29.8449 33.6517 29.8443 33.6509C29.8397 33.6485 29.8352 33.6462 29.8307 33.6438C29.8269 33.6418 29.8232 33.6399 29.8195 33.6379ZM29.8195 33.6379L29.8133 33.6496L29.8105 33.6549L29.797 33.6804C29.7964 33.671 29.796 33.6626 29.7958 33.6555C29.7898 33.6379 29.8076 33.632 29.8195 33.6379ZM30.8486 34.621C30.852 34.6234 30.8555 34.6257 30.859 34.628L30.8485 34.6211L30.8486 34.621ZM30.2583 29.6295L30.2682 29.6395L30.2718 29.6431L30.4994 29.8728C30.5903 29.9738 30.6832 30.0728 30.7784 30.1699C30.65 30.2935 30.4988 30.3507 30.3654 30.3672C30.2849 30.3772 30.1552 30.3793 30.0096 30.3226C29.9932 30.3162 29.9771 30.3093 29.9611 30.3017C30.0293 30.0837 30.12 29.875 30.2309 29.6775C30.2359 29.6685 30.241 29.6595 30.2461 29.6506C30.2502 29.6436 30.2542 29.6365 30.2583 29.6295ZM30.2583 29.6295L30.2721 29.6375L30.2758 29.6397L30.3168 29.6636C30.3071 29.6522 30.2976 29.6409 30.288 29.6295C30.2821 29.6177 30.2643 29.6236 30.2583 29.6295ZM31.5291 37.528C31.4754 37.5812 31.4013 37.6369 31.3084 37.6776C31.2045 37.5094 31.1154 37.3316 31.0428 37.1458C31.2232 37.2546 31.4128 37.3503 31.6105 37.4316C31.5841 37.469 31.5562 37.5012 31.5291 37.528ZM45.0936 29.3331L45.1567 29.357L45.1575 29.3573L45.2089 29.3767L45.1574 29.3571L45.1566 29.3568L45.0939 29.333C45.1066 29.326 45.1193 29.3191 45.1319 29.3121C45.1734 29.2886 45.2268 29.3297 45.209 29.3768C45.2036 29.3909 45.1981 29.4051 45.1926 29.4192C45.1923 29.4197 45.1921 29.4203 45.1919 29.4208C45.1108 29.625 45.0099 29.8194 44.8914 30.0017C44.8277 29.9753 44.7697 29.9406 44.7204 29.9006C44.6337 29.8303 44.5586 29.7316 44.5119 29.6157C44.7105 29.5303 44.9045 29.4359 45.0936 29.3331ZM44.9915 31.0655C45.099 30.9571 45.2005 30.8429 45.2954 30.7232C45.373 30.6956 45.45 30.6668 45.5263 30.6368C45.529 30.6358 45.5317 30.6347 45.5344 30.6337C45.5386 30.632 45.5428 30.6303 45.5471 30.6287C45.5945 30.6051 45.642 30.6639 45.6123 30.6992L44.9915 31.0655Z" stroke="url(#paint3_linear_1_1180)" stroke-width="1.5"/>
</g>
<defs>
<filter id="filter0_f_1_1180" x="0.147827" y="0.690674" width="81.0331" height="80.7373" filterUnits="userSpaceOnUse" color-interpolation-filters="sRGB">
<feFlood flood-opacity="0" result="BackgroundImageFix"/>
<feBlend mode="normal" in="SourceGraphic" in2="BackgroundImageFix" result="shape"/>
<feGaussianBlur stdDeviation="12" result="effect1_foregroundBlur_1_1180"/>
</filter>
<filter id="filter1_f_1_1180" x="13.6268" y="11.9025" width="46.0729" height="45.8215" filterUnits="userSpaceOnUse" color-interpolation-filters="sRGB">
<feFlood flood-opacity="0" result="BackgroundImageFix"/>
<feBlend mode="normal" in="SourceGraphic" in2="BackgroundImageFix" result="shape"/>
<feGaussianBlur stdDeviation="4.5" result="effect1_foregroundBlur_1_1180"/>
</filter>
<filter id="filter2_f_1_1180" x="11.6268" y="9.90247" width="50.0729" height="49.8215" filterUnits="userSpaceOnUse" color-interpolation-filters="sRGB">
<feFlood flood-opacity="0" result="BackgroundImageFix"/>
<feBlend mode="normal" in="SourceGraphic" in2="BackgroundImageFix" result="shape"/>
<feGaussianBlur stdDeviation="5.5" result="effect1_foregroundBlur_1_1180"/>
</filter>
<filter id="filter3_d_1_1180" x="26.1197" y="29.0006" width="22.5018" height="19.1537" filterUnits="userSpaceOnUse" color-interpolation-filters="sRGB">
<feFlood flood-opacity="0" result="BackgroundImageFix"/>
<feColorMatrix in="SourceAlpha" type="matrix" values="0 0 0 0 0 0 0 0 0 0 0 0 0 0 0 0 0 0 127 0" result="hardAlpha"/>
<feOffset dy="3"/>
<feGaussianBlur stdDeviation="1.5"/>
<feComposite in2="hardAlpha" operator="out"/>
<feColorMatrix type="matrix" values="0 0 0 0 0.10028 0 0 0 0 0.097309 0 0 0 0 0.245833 0 0 0 0.28 0"/>
<feBlend mode="normal" in2="BackgroundImageFix" result="effect1_dropShadow_1_1180"/>
<feBlend mode="normal" in="SourceGraphic" in2="effect1_dropShadow_1_1180" result="shape"/>
</filter>
<linearGradient id="paint0_linear_1_1180" x1="30.2938" y1="53.3335" x2="42.3204" y2="17.7109" gradientUnits="userSpaceOnUse">
<stop stop-color="#21D7FF"/>
<stop offset="0.8518" stop-color="#1C84DB"/>
<stop offset="1" stop-color="#1C84E4"/>
</linearGradient>
<linearGradient id="paint1_linear_1_1180" x1="45.673" y1="18.2882" x2="22.8714" y2="45.9562" gradientUnits="userSpaceOnUse">
<stop stop-color="white"/>
<stop offset="1" stop-color="white" stop-opacity="0"/>
</linearGradient>
<linearGradient id="paint2_linear_1_1180" x1="45.673" y1="18.2882" x2="22.8714" y2="45.9562" gradientUnits="userSpaceOnUse">
<stop stop-color="white"/>
<stop offset="1" stop-color="white" stop-opacity="0"/>
</linearGradient>
<linearGradient id="paint3_linear_1_1180" x1="37.3706" y1="31.3643" x2="44.4588" y2="38.7058" gradientUnits="userSpaceOnUse">
<stop stop-color="white"/>
<stop offset="1" stop-color="white" stop-opacity="0"/>
</linearGradient>
</defs>
</svg>
