<svg width="53" height="53" viewBox="0 0 53 53" fill="none" xmlns="http://www.w3.org/2000/svg">
<g filter="url(#filter0_f_1_1165)">
<path d="M26.3416 44.428C36.1277 44.428 44.0609 36.5858 44.0609 26.912C44.0609 17.2382 36.1277 9.396 26.3416 9.396C16.5555 9.396 8.62231 17.2382 8.62231 26.912C8.62231 36.5858 16.5555 44.428 26.3416 44.428Z" fill="#5799EF" fill-opacity="0.39"/>
</g>
<path d="M23.7193 39.4599C33.5054 39.4599 41.4386 31.6178 41.4386 21.944C41.4386 12.2702 33.5054 4.42798 23.7193 4.42798C13.9332 4.42798 6 12.2702 6 21.944C6 31.6178 13.9332 39.4599 23.7193 39.4599Z" fill="url(#paint0_linear_1_1165)"/>
<g filter="url(#filter1_f_1_1165)">
<path d="M37.7818 22.4347C37.7818 30.1062 31.4895 36.3319 23.7193 36.3319C15.9491 36.3319 9.65682 30.1062 9.65682 22.4347C9.65682 14.7631 15.9491 8.53744 23.7193 8.53744C31.4895 8.53744 37.7818 14.7631 37.7818 22.4347Z" stroke="url(#paint1_linear_1_1165)" stroke-width="0.680097"/>
</g>
<g filter="url(#filter2_f_1_1165)">
<path d="M37.7818 22.4347C37.7818 30.1062 31.4895 36.3319 23.7193 36.3319C15.9491 36.3319 9.65682 30.1062 9.65682 22.4347C9.65682 14.7631 15.9491 8.53744 23.7193 8.53744C31.4895 8.53744 37.7818 14.7631 37.7818 22.4347Z" stroke="url(#paint2_linear_1_1165)" stroke-width="0.680097"/>
</g>
<g filter="url(#filter3_bd_1_1165)">
<path d="M25.3847 18.8469V17.4613C25.3847 16.7862 25.8399 16.6263 26.1574 16.6263C26.4749 16.6263 28.1282 16.6263 28.1282 16.6263V13.6537L25.4146 13.6418C22.4075 13.6418 21.7186 15.8565 21.7186 17.2777V18.8469H19.9814V22.3169H21.7366C21.7366 26.2488 21.7366 30.992 21.7366 30.992H25.2469C25.2469 30.992 25.2469 26.2015 25.2469 22.3169H27.8527L28.1701 18.8469H25.3847Z" fill="#E0EBFF"/>
<path d="M25.1296 18.8469V19.1019H25.3847H27.8907L27.6199 22.0619H25.2469H24.9918V22.3169V22.3397V22.3625V22.3853V22.4081V22.431V22.4539V22.4768V22.4997V22.5226V22.5455V22.5685V22.5915V22.6145V22.6375V22.6605V22.6836V22.7067V22.7297V22.7528V22.776V22.7991V22.8222V22.8454V22.8686V22.8918V22.915V22.9382V22.9614V22.9847V23.0079V23.0312V23.0545V23.0778V23.1011V23.1244V23.1478V23.1711V23.1945V23.2179V23.2412V23.2646V23.288V23.3114V23.3349V23.3583V23.3817V23.4052V23.4287V23.4521V23.4756V23.4991V23.5226V23.5461V23.5696V23.5931V23.6166V23.6401V23.6637V23.6872V23.7107V23.7343V23.7579V23.7814V23.805V23.8285V23.8521V23.8757V23.8993V23.9229V23.9464V23.97V23.9936V24.0172V24.0408V24.0644V24.088V24.1116V24.1352V24.1588V24.1824V24.206V24.2296V24.2533V24.2769V24.3005V24.3241V24.3477V24.3713V24.3949V24.4185V24.4421V24.4656V24.4892V24.5128V24.5364V24.56V24.5836V24.6071V24.6307V24.6543V24.6778V24.7014V24.7249V24.7485V24.772V24.7955V24.8191V24.8426V24.8661V24.8896V24.9131V24.9366V24.9601V24.9835V25.007V25.0305V25.0539V25.0774V25.1008V25.1242V25.1476V25.171V25.1944V25.2178V25.2412V25.2645V25.2879V25.3112V25.3345V25.3578V25.3811V25.4044V25.4277V25.451V25.4742V25.4974V25.5207V25.5439V25.567V25.5902V25.6134V25.6365V25.6597V25.6828V25.7059V25.729V25.752V25.7751V25.7981V25.8211V25.8441V25.8671V25.8901V25.913V25.9359V25.9588V25.9817V26.0046V26.0274V26.0503V26.0731V26.0959V26.1186V26.1414V26.1641V26.1868V26.2095V26.2322V26.2548V26.2774V26.3V26.3226V26.3451V26.3677V26.3902V26.4126V26.4351V26.4575V26.4799V26.5023V26.5247V26.547V26.5693V26.5916V26.6138V26.6361V26.6583V26.6804V26.7026V26.7247V26.7468V26.7689V26.7909V26.8129V26.8349V26.8568V26.8787V26.9006V26.9225V26.9443V26.9661V26.9879V27.0096V27.0313V27.053V27.0747V27.0963V27.1179V27.1394V27.1609V27.1824V27.2039V27.2253V27.2467V27.268V27.2893V27.3106V27.3319V27.3531V27.3742V27.3954V27.4165V27.4376V27.4586V27.4796V27.5006V27.5215V27.5424V27.5632V27.584V27.6048V27.6256V27.6463V27.6669V27.6875V27.7081V27.7287V27.7492V27.7696V27.7901V27.8104V27.8308V27.8511V27.8713V27.8916V27.9117V27.9319V27.952V27.972V27.992V28.012V28.0319V28.0518V28.0716V28.0914V28.1112V28.1309V28.1505V28.1701V28.1897V28.2092V28.2287V28.2481V28.2675V28.2869V28.3062V28.3254V28.3446V28.3638V28.3829V28.4019V28.4209V28.4399V28.4588V28.4776V28.4964V28.5152V28.5339V28.5526V28.5712V28.5897V28.6083V28.6267V28.6451V28.6635V28.6818V28.7V28.7182V28.7364V28.7545V28.7725V28.7905V28.8084V28.8263V28.8441V28.8619V28.8796V28.8973V28.9149V28.9324V28.9499V28.9674V28.9847V29.0021V29.0193V29.0366V29.0537V29.0708V29.0878V29.1048V29.1218V29.1386V29.1554V29.1722V29.1889V29.2055V29.2221V29.2386V29.255V29.2714V29.2877V29.304V29.3202V29.3364V29.3524V29.3685V29.3844V29.4003V29.4161V29.4319V29.4476V29.4633V29.4788V29.4944V29.5098V29.5252V29.5405V29.5558V29.571V29.5861V29.6011V29.6161V29.6311V29.6459V29.6607V29.6754V29.6901V29.7047V29.7192V29.7337V29.7481V29.7624V29.7766V29.7908V29.8049V29.819V29.8329V29.8468V29.8607V29.8744V29.8881V29.9017V29.9153V29.9288V29.9422V29.9555V29.9687V29.9819V29.995V30.0081V30.021V30.0339V30.0468V30.0595V30.0722V30.0848V30.0973V30.1097V30.1221V30.1344V30.1466V30.1587V30.1708V30.1828V30.1947V30.2065V30.2183V30.23V30.2416V30.2531V30.2645V30.2759V30.2872V30.2984V30.3095V30.3206V30.3315V30.3424V30.3532V30.3639V30.3746V30.3851V30.3956V30.406V30.4163V30.4266V30.4367V30.4468V30.4568V30.4667V30.4765V30.4862V30.4959V30.5054V30.5149V30.5243V30.5336V30.5428V30.552V30.561V30.57V30.5789V30.5877V30.5964V30.605V30.6135V30.622V30.6303V30.6386V30.6468V30.6549V30.6629V30.6708V30.6786V30.6863V30.694V30.7015V30.709V30.7164V30.7237V30.7308V30.737H21.9916V30.7332V30.7261V30.7188V30.7115V30.7041V30.6967V30.6891V30.6814V30.6736V30.6658V30.6579V30.6498V30.6417V30.6335V30.6252V30.6169V30.6084V30.5999V30.5912V30.5825V30.5737V30.5648V30.5558V30.5468V30.5376V30.5284V30.5191V30.5096V30.5002V30.4906V30.4809V30.4712V30.4614V30.4515V30.4415V30.4314V30.4212V30.411V30.4007V30.3903V30.3798V30.3693V30.3586V30.3479V30.3371V30.3262V30.3152V30.3042V30.2931V30.2819V30.2706V30.2592V30.2478V30.2363V30.2247V30.213V30.2013V30.1895V30.1776V30.1656V30.1535V30.1414V30.1292V30.1169V30.1046V30.0921V30.0796V30.067V30.0544V30.0417V30.0289V30.016V30.003V29.99V29.9769V29.9637V29.9505V29.9372V29.9238V29.9104V29.8968V29.8832V29.8696V29.8558V29.842V29.8281V29.8142V29.8002V29.7861V29.7719V29.7577V29.7434V29.729V29.7146V29.7001V29.6855V29.6709V29.6562V29.6414V29.6266V29.6117V29.5967V29.5817V29.5666V29.5514V29.5362V29.5209V29.5056V29.4901V29.4747V29.4591V29.4435V29.4278V29.4121V29.3963V29.3804V29.3645V29.3485V29.3324V29.3163V29.3001V29.2839V29.2676V29.2512V29.2348V29.2183V29.2018V29.1852V29.1685V29.1518V29.1351V29.1182V29.1013V29.0844V29.0674V29.0503V29.0332V29.016V28.9988V28.9815V28.9641V28.9467V28.9292V28.9117V28.8941V28.8765V28.8588V28.8411V28.8233V28.8055V28.7876V28.7696V28.7516V28.7335V28.7154V28.6972V28.679V28.6608V28.6424V28.6241V28.6056V28.5871V28.5686V28.55V28.5314V28.5127V28.494V28.4752V28.4564V28.4375V28.4186V28.3996V28.3806V28.3615V28.3424V28.3232V28.304V28.2847V28.2654V28.2461V28.2267V28.2072V28.1877V28.1682V28.1486V28.1289V28.1093V28.0895V28.0698V28.05V28.0301V28.0102V27.9903V27.9703V27.9502V27.9302V27.9101V27.8899V27.8697V27.8495V27.8292V27.8089V27.7885V27.7681V27.7476V27.7272V27.7066V27.6861V27.6655V27.6448V27.6241V27.6034V27.5827V27.5619V27.541V27.5201V27.4992V27.4783V27.4573V27.4363V27.4152V27.3941V27.373V27.3518V27.3306V27.3094V27.2881V27.2668V27.2454V27.2241V27.2026V27.1812V27.1597V27.1382V27.1167V27.0951V27.0735V27.0518V27.0302V27.0084V26.9867V26.9649V26.9431V26.9213V26.8994V26.8775V26.8556V26.8337V26.8117V26.7897V26.7676V26.7456V26.7235V26.7013V26.6792V26.657V26.6348V26.6125V26.5903V26.568V26.5457V26.5233V26.501V26.4786V26.4561V26.4337V26.4112V26.3887V26.3662V26.3436V26.3211V26.2985V26.2759V26.2532V26.2306V26.2079V26.1852V26.1624V26.1397V26.1169V26.0941V26.0713V26.0484V26.0256V26.0027V25.9798V25.9568V25.9339V25.9109V25.888V25.865V25.8419V25.8189V25.7958V25.7728V25.7497V25.7266V25.7034V25.6803V25.6571V25.6339V25.6107V25.5875V25.5643V25.5411V25.5178V25.4945V25.4712V25.4479V25.4246V25.4013V25.3779V25.3546V25.3312V25.3078V25.2844V25.261V25.2376V25.2141V25.1907V25.1672V25.1437V25.1203V25.0968V25.0733V25.0497V25.0262V25.0027V24.9791V24.9556V24.932V24.9084V24.8848V24.8613V24.8377V24.814V24.7904V24.7668V24.7432V24.7195V24.6959V24.6722V24.6486V24.6249V24.6013V24.5776V24.5539V24.5302V24.5065V24.4828V24.4591V24.4354V24.4117V24.388V24.3643V24.3406V24.3169V24.2931V24.2694V24.2457V24.222V24.1982V24.1745V24.1508V24.1271V24.1033V24.0796V24.0559V24.0321V24.0084V23.9847V23.9609V23.9372V23.9135V23.8897V23.866V23.8423V23.8186V23.7949V23.7711V23.7474V23.7237V23.7V23.6763V23.6526V23.6289V23.6053V23.5816V23.5579V23.5342V23.5106V23.4869V23.4632V23.4396V23.416V23.3923V23.3687V23.3451V23.3215V23.2979V23.2743V23.2507V23.2271V23.2035V23.18V23.1564V23.1329V23.1093V23.0858V23.0623V23.0388V23.0153V22.9918V22.9684V22.9449V22.9215V22.8981V22.8746V22.8512V22.8278V22.8045V22.7811V22.7577V22.7344V22.7111V22.6878V22.6645V22.6412V22.6179V22.5947V22.5714V22.5482V22.525V22.5018V22.4786V22.4555V22.4323V22.4092V22.3861V22.363V22.34V22.3169V22.0619H21.7366H20.2364V19.1019H21.7186H21.9736V18.8469V17.2777C21.9736 16.6012 22.1387 15.7527 22.643 15.0798C23.1377 14.4197 23.9821 13.897 25.4141 13.8969C25.4142 13.8969 25.4144 13.8969 25.4146 13.8969L27.8732 13.9076V16.3713H27.8724H27.8687H27.8649H27.8612H27.8574H27.8536H27.8498H27.8459H27.8421H27.8382H27.8343H27.8304H27.8264H27.8225H27.8185H27.8145H27.8105H27.8064H27.8024H27.7983H27.7942H27.7901H27.786H27.7818H27.7777H27.7735H27.7693H27.7651H27.7608H27.7566H27.7523H27.748H27.7437H27.7394H27.7351H27.7307H27.7263H27.722H27.7176H27.7131H27.7087H27.7043H27.6998H27.6953H27.6908H27.6863H27.6818H27.6773H27.6727H27.6681H27.6635H27.6589H27.6543H27.6497H27.6451H27.6404H27.6357H27.6311H27.6264H27.6217H27.6169H27.6122H27.6075H27.6027H27.5979H27.5932H27.5884H27.5835H27.5787H27.5739H27.569H27.5642H27.5593H27.5544H27.5496H27.5447H27.5397H27.5348H27.5299H27.5249H27.52H27.515H27.51H27.5051H27.5001H27.4951H27.49H27.485H27.48H27.4749H27.4699H27.4648H27.4598H27.4547H27.4496H27.4445H27.4394H27.4343H27.4292H27.424H27.4189H27.4138H27.4086H27.4034H27.3983H27.3931H27.3879H27.3827H27.3775H27.3723H27.3671H27.3619H27.3567H27.3515H27.3463H27.341H27.3358H27.3305H27.3253H27.32H27.3148H27.3095H27.3042H27.2989H27.2937H27.2884H27.2831H27.2778H27.2725H27.2672H27.2619H27.2566H27.2512H27.2459H27.2406H27.2353H27.23H27.2246H27.2193H27.214H27.2086H27.2033H27.1979H27.1926H27.1873H27.1819H27.1766H27.1712H27.1659H27.1605H27.1551H27.1498H27.1444H27.1391H27.1337H27.1284H27.123H27.1176H27.1123H27.1069H27.1016H27.0962H27.0909H27.0855H27.0801H27.0748H27.0694H27.0641H27.0587H27.0534H27.048H27.0427H27.0373H27.032H27.0267H27.0213H27.016H27.0107H27.0053H27H26.9947H26.9893H26.984H26.9787H26.9734H26.9681H26.9628H26.9575H26.9522H26.9469H26.9416H26.9363H26.931H26.9258H26.9205H26.9152H26.91H26.9047H26.8995H26.8942H26.889H26.8838H26.8785H26.8733H26.8681H26.8629H26.8577H26.8525H26.8473H26.8421H26.8369H26.8318H26.8266H26.8215H26.8163H26.8112H26.806H26.8009H26.7958H26.7907H26.7856H26.7805H26.7754H26.7704H26.7653H26.7602H26.7552H26.7501H26.7451H26.7401H26.7351H26.7301H26.7251H26.7201H26.7152H26.7102H26.7052H26.7003H26.6954H26.6905H26.6856H26.6807H26.6758H26.6709H26.6661H26.6612H26.6564H26.6515H26.6467H26.6419H26.6371H26.6324H26.6276H26.6228H26.6181H26.6134H26.6087H26.604H26.5993H26.5946H26.59H26.5853H26.5807H26.5761H26.5715H26.5669H26.5623H26.5577H26.5532H26.5487H26.5441H26.5396H26.5352H26.5307H26.5262H26.5218H26.5174H26.513H26.5086H26.5042H26.4998H26.4955H26.4912H26.4869H26.4826H26.4783H26.474H26.4698H26.4656H26.4614H26.4572H26.453H26.4489H26.4447H26.4406H26.4365H26.4324H26.4284H26.4243H26.4203H26.4163H26.4123H26.4083H26.4044H26.4005H26.3966H26.3927H26.3888H26.3849H26.3811H26.3773H26.3735H26.3698H26.366H26.3623H26.3586H26.3549H26.3512H26.3476H26.344H26.3404H26.3368H26.3332H26.3297H26.3262H26.3227H26.3192H26.3158H26.3124H26.309H26.3056H26.3023H26.2989H26.2956H26.2923H26.2891H26.2859H26.2826H26.2795H26.2763H26.2732H26.27H26.267H26.2639H26.2609H26.2578H26.2548H26.2519H26.2489H26.246H26.2431H26.2403H26.2374H26.2346H26.2319H26.2291H26.2264H26.2237H26.221H26.2183H26.2157H26.2131H26.2105H26.208H26.2055H26.203H26.2005H26.1981H26.1957H26.1933H26.191H26.1887H26.1864H26.1841H26.1819H26.1797H26.1775H26.1754H26.1733H26.1712H26.1691H26.1671H26.1651H26.1631H26.1612H26.1593H26.1574C25.962 16.3713 25.7048 16.4196 25.4914 16.5925C25.268 16.7735 25.1296 17.0609 25.1296 17.4613V18.8469Z" stroke="url(#paint3_linear_1_1165)" stroke-width="0.510073"/>
</g>
<defs>
<filter id="filter0_f_1_1165" x="0.121104" y="0.894786" width="52.441" height="52.0344" filterUnits="userSpaceOnUse" color-interpolation-filters="sRGB">
<feFlood flood-opacity="0" result="BackgroundImageFix"/>
<feBlend mode="normal" in="SourceGraphic" in2="BackgroundImageFix" result="shape"/>
<feGaussianBlur stdDeviation="4.25061" result="effect1_foregroundBlur_1_1165"/>
</filter>
<filter id="filter1_f_1_1165" x="5.91629" y="4.7969" width="35.606" height="35.2755" filterUnits="userSpaceOnUse" color-interpolation-filters="sRGB">
<feFlood flood-opacity="0" result="BackgroundImageFix"/>
<feBlend mode="normal" in="SourceGraphic" in2="BackgroundImageFix" result="shape"/>
<feGaussianBlur stdDeviation="1.70024" result="effect1_foregroundBlur_1_1165"/>
</filter>
<filter id="filter2_f_1_1165" x="3.1959" y="2.07652" width="41.0468" height="40.7162" filterUnits="userSpaceOnUse" color-interpolation-filters="sRGB">
<feFlood flood-opacity="0" result="BackgroundImageFix"/>
<feBlend mode="normal" in="SourceGraphic" in2="BackgroundImageFix" result="shape"/>
<feGaussianBlur stdDeviation="3.06044" result="effect1_foregroundBlur_1_1165"/>
</filter>
<filter id="filter3_bd_1_1165" x="18.2811" y="12.2817" width="11.2492" height="20.4107" filterUnits="userSpaceOnUse" color-interpolation-filters="sRGB">
<feFlood flood-opacity="0" result="BackgroundImageFix"/>
<feGaussianBlur in="BackgroundImageFix" stdDeviation="0.680097"/>
<feComposite in2="SourceAlpha" operator="in" result="effect1_backgroundBlur_1_1165"/>
<feColorMatrix in="SourceAlpha" type="matrix" values="0 0 0 0 0 0 0 0 0 0 0 0 0 0 0 0 0 0 127 0" result="hardAlpha"/>
<feOffset dx="-0.680097" dy="0.680097"/>
<feGaussianBlur stdDeviation="0.510073"/>
<feComposite in2="hardAlpha" operator="out"/>
<feColorMatrix type="matrix" values="0 0 0 0 0 0 0 0 0 0 0 0 0 0 0 0 0 0 0.19 0"/>
<feBlend mode="normal" in2="effect1_backgroundBlur_1_1165" result="effect2_dropShadow_1_1165"/>
<feBlend mode="normal" in="SourceGraphic" in2="effect2_dropShadow_1_1165" result="shape"/>
</filter>
<linearGradient id="paint0_linear_1_1165" x1="29.5915" y1="3.75541" x2="17.2304" y2="42.9141" gradientUnits="userSpaceOnUse">
<stop stop-color="#243FE1"/>
<stop offset="0.1537" stop-color="#2F53E5"/>
<stop offset="0.4688" stop-color="#4C87ED"/>
<stop offset="0.9138" stop-color="#7BDAFB"/>
<stop offset="1" stop-color="#84EAFE"/>
</linearGradient>
<linearGradient id="paint1_linear_1_1165" x1="32.4183" y1="9.83851" x2="23.8997" y2="36.7291" gradientUnits="userSpaceOnUse">
<stop stop-color="white"/>
<stop offset="1" stop-color="white" stop-opacity="0"/>
</linearGradient>
<linearGradient id="paint2_linear_1_1165" x1="32.4183" y1="9.83851" x2="23.8997" y2="36.7291" gradientUnits="userSpaceOnUse">
<stop stop-color="white"/>
<stop offset="1" stop-color="white" stop-opacity="0"/>
</linearGradient>
<linearGradient id="paint3_linear_1_1165" x1="19.9814" y1="17.7414" x2="25.2487" y2="21.1783" gradientUnits="userSpaceOnUse">
<stop stop-color="white"/>
<stop offset="1" stop-color="white" stop-opacity="0"/>
</linearGradient>
</defs>
</svg>
