<svg width="112" height="113" viewBox="0 0 112 113" fill="none" xmlns="http://www.w3.org/2000/svg">
<circle cx="56" cy="56.7106" r="56" fill="#FDF0BF"/>
<path d="M20.9427 33.571C20.9427 32.7685 21.5932 32.1179 22.3958 32.1179H92.1903C92.9929 32.1179 93.6435 32.7685 93.6435 33.571V78.5886C93.6435 79.3912 92.9929 80.0418 92.1903 80.0418H22.3958C21.5932 80.0418 20.9427 79.3912 20.9427 78.5886V33.571Z" fill="#001826"/>
<path d="M17.3565 29.8598C17.3565 29.0573 18.0071 28.4067 18.8097 28.4067H88.6042C89.4067 28.4067 90.0573 29.0573 90.0573 29.8598V74.8774C90.0573 75.6799 89.4067 76.3305 88.6042 76.3305H18.8097C18.0071 76.3305 17.3565 75.6799 17.3565 74.8774V29.8598Z" fill="white"/>
<path fill-rule="evenodd" clip-rule="evenodd" d="M18.8097 26.9536H88.6042C90.2093 26.9536 91.5105 28.2547 91.5105 29.8598V74.8774C91.5105 76.4825 90.2093 77.7836 88.6042 77.7836H18.8097C17.2046 77.7836 15.9034 76.4825 15.9034 74.8774V29.8598C15.9034 28.2547 17.2046 26.9536 18.8097 26.9536ZM18.8097 28.4067C18.0071 28.4067 17.3565 29.0573 17.3565 29.8598V74.8774C17.3565 75.6799 18.0071 76.3305 18.8097 76.3305H88.6042C89.4067 76.3305 90.0573 75.6799 90.0573 74.8774V29.8598C90.0573 29.0573 89.4067 28.4067 88.6042 28.4067H18.8097Z" fill="#001826"/>
<path fill-rule="evenodd" clip-rule="evenodd" d="M28.5296 45.7133C28.5296 45.312 28.8549 44.9867 29.2561 44.9867H78.158C78.5593 44.9867 78.8846 45.312 78.8846 45.7133C78.8846 46.1145 78.5593 46.4398 78.158 46.4398H29.2561C28.8549 46.4398 28.5296 46.1145 28.5296 45.7133Z" fill="#001826"/>
<path fill-rule="evenodd" clip-rule="evenodd" d="M43.526 37.535C43.526 37.1338 43.8513 36.8085 44.2526 36.8085H61.8573C62.2585 36.8085 62.5838 37.1338 62.5838 37.535C62.5838 37.9363 62.2585 38.2616 61.8573 38.2616H44.2526C43.8513 38.2616 43.526 37.9363 43.526 37.535Z" fill="#001826"/>
<path fill-rule="evenodd" clip-rule="evenodd" d="M28.5296 49.4624C28.5296 49.0612 28.8549 48.7359 29.2561 48.7359H78.158C78.5593 48.7359 78.8846 49.0612 78.8846 49.4624C78.8846 49.8637 78.5593 50.189 78.158 50.189H29.2561C28.8549 50.189 28.5296 49.8637 28.5296 49.4624Z" fill="#001826"/>
<path fill-rule="evenodd" clip-rule="evenodd" d="M28.5296 53.8775C28.5296 53.4762 28.8549 53.1509 29.2561 53.1509H78.158C78.5593 53.1509 78.8846 53.4762 78.8846 53.8775C78.8846 54.2788 78.5593 54.6041 78.158 54.6041H29.2561C28.8549 54.6041 28.5296 54.2788 28.5296 53.8775Z" fill="#001826"/>
<path fill-rule="evenodd" clip-rule="evenodd" d="M28.5296 58.2787C28.5296 57.8775 28.8549 57.5522 29.2561 57.5522H78.158C78.5593 57.5522 78.8846 57.8775 78.8846 58.2787C78.8846 58.68 78.5593 59.0053 78.158 59.0053H29.2561C28.8549 59.0053 28.5296 58.68 28.5296 58.2787Z" fill="#001826"/>
<path fill-rule="evenodd" clip-rule="evenodd" d="M28.5296 62.3536C28.5296 61.9523 28.8549 61.627 29.2561 61.627H52.077C52.4783 61.627 52.8036 61.9523 52.8036 62.3536C52.8036 62.7549 52.4783 63.0802 52.077 63.0802H29.2561C28.8549 63.0802 28.5296 62.7549 28.5296 62.3536Z" fill="#001826"/>
<path d="M73.9938 67.9792H81.8181V81.8348L77.9059 77.9226L73.9938 81.8348V67.9792Z" fill="white"/>
<path fill-rule="evenodd" clip-rule="evenodd" d="M72.5406 67.9792C72.5406 67.1767 73.1912 66.5261 73.9938 66.5261H81.8181C82.6206 66.5261 83.2712 67.1767 83.2712 67.9792V81.8348C83.2712 82.4225 82.9172 82.9524 82.3742 83.1773C81.8312 83.4022 81.2062 83.2779 80.7906 82.8623L77.9059 79.9777L75.0213 82.8623C74.6057 83.2779 73.9807 83.4022 73.4377 83.1773C72.8947 82.9524 72.5406 82.4225 72.5406 81.8348V67.9792ZM77.9059 77.9226L81.8181 81.8348V67.9792H73.9938V81.8348L77.9059 77.9226Z" fill="#001826"/>
<path d="M84.5151 68.4247C84.5151 71.9808 81.6689 74.8635 78.1579 74.8635C74.6469 74.8635 71.8007 71.9808 71.8007 68.4247C71.8007 64.8687 74.6469 61.986 78.1579 61.986C81.6689 61.986 84.5151 64.8687 84.5151 68.4247Z" fill="white"/>
<path fill-rule="evenodd" clip-rule="evenodd" d="M85.9683 68.4247C85.9683 72.7658 82.4888 76.3166 78.1579 76.3166C73.827 76.3166 70.3475 72.7658 70.3475 68.4247C70.3475 64.0837 73.827 60.5329 78.1579 60.5329C82.4888 60.5329 85.9683 64.0837 85.9683 68.4247ZM78.1579 74.8635C81.6689 74.8635 84.5151 71.9808 84.5151 68.4247C84.5151 64.8687 81.6689 61.986 78.1579 61.986C74.6469 61.986 71.8007 64.8687 71.8007 68.4247C71.8007 71.9808 74.6469 74.8635 78.1579 74.8635Z" fill="#001826"/>
<path fill-rule="evenodd" clip-rule="evenodd" d="M83.0063 68.4246C83.0063 71.1085 80.8532 73.316 78.1584 73.316C75.4635 73.316 73.3105 71.1085 73.3105 68.4246C73.3105 65.7406 75.4635 63.5331 78.1584 63.5331C80.8532 63.5331 83.0063 65.7406 83.0063 68.4246ZM78.1584 71.8629C80.0333 71.8629 81.5532 70.3235 81.5532 68.4246C81.5532 66.5256 80.0333 64.9862 78.1584 64.9862C76.2835 64.9862 74.7636 66.5256 74.7636 68.4246C74.7636 70.3235 76.2835 71.8629 78.1584 71.8629Z" fill="#001826"/>
</svg>
