<svg width="112" height="113" viewBox="0 0 112 113" fill="none" xmlns="http://www.w3.org/2000/svg">
<circle cx="56" cy="56.7106" r="56" fill="#B9E9C9"/>
<path d="M35.8731 26.5881L27.9761 35.3767C27.1261 36.3227 27.8153 37.8269 29.0868 37.8008L82.0921 36.7125C83.3647 36.6863 83.9911 35.1527 83.1006 34.2431L74.5847 25.5441C74.4444 25.4007 74.2509 25.3217 74.0503 25.326L36.9235 26.1065C36.5219 26.1149 36.1416 26.2892 35.8731 26.5881Z" fill="#001826"/>
<path d="M49.3152 79.2302L26.6628 37.9662L36.752 27.5654L59.5203 69.7338L49.3152 79.2302Z" fill="white"/>
<path fill-rule="evenodd" clip-rule="evenodd" d="M25.3889 38.6655C25.082 38.1063 25.1756 37.4123 25.6197 36.9545L35.7089 26.5537C36.0313 26.2214 36.4926 26.0626 36.9512 26.126C37.4098 26.1895 37.8106 26.4677 38.0306 26.8751L60.7989 69.0435C61.1133 69.6257 60.9946 70.3469 60.5102 70.7976L50.305 80.294C49.977 80.5993 49.5265 80.7361 49.0841 80.6649C48.6417 80.5936 48.2569 80.3223 48.0413 79.9295L25.3889 38.6655ZM49.3151 79.2302L59.5203 69.7338L36.7519 27.5654L26.6628 37.9662L49.3151 79.2302Z" fill="#001826"/>
<path fill-rule="evenodd" clip-rule="evenodd" d="M35.6637 46.4005C36.0142 46.2052 36.4567 46.3311 36.652 46.6816L44.9243 61.5291C45.1197 61.8796 44.9938 62.3221 44.6433 62.5174C44.2927 62.7127 43.8503 62.5869 43.655 62.2364L35.3826 47.3889C35.1873 47.0383 35.3131 46.5958 35.6637 46.4005Z" fill="#001826"/>
<path d="M64.6227 75.6126L84.3372 36.6473L74.1321 26.7741L53.1032 68.0758L64.6227 75.6126Z" fill="white"/>
<path fill-rule="evenodd" clip-rule="evenodd" d="M85.6338 37.3034C85.9214 36.7351 85.8053 36.0458 85.3476 35.603L75.1425 25.7298C74.8111 25.4092 74.3474 25.2649 73.8927 25.3409C73.438 25.4168 73.0463 25.704 72.8371 26.1148L51.8083 67.4165C51.4718 68.0774 51.687 68.8857 52.3077 69.2918L63.8271 76.8286C64.1731 77.0549 64.5991 77.1232 64.9984 77.0163C65.3978 76.9094 65.7327 76.6375 65.9193 76.2686L85.6338 37.3034ZM64.6227 75.6126L53.1032 68.0758L74.1321 26.7741L84.3372 36.6473L64.6227 75.6126Z" fill="#001826"/>
<path fill-rule="evenodd" clip-rule="evenodd" d="M72.6724 36.5217C73.033 36.6976 73.1829 37.1325 73.007 37.4932L67.054 49.7028C66.8781 50.0635 66.4432 50.2133 66.0825 50.0375C65.7218 49.8616 65.572 49.4267 65.7478 49.066L71.7009 36.8564C71.8767 36.4957 72.3117 36.3459 72.6724 36.5217Z" fill="#001826"/>
<path d="M71.1636 70.5713C71.1636 78.8974 64.4139 85.6471 56.0878 85.6471C47.7617 85.6471 41.012 78.8974 41.012 70.5713C41.012 62.2451 47.7617 55.4955 56.0878 55.4955C64.4139 55.4955 71.1636 62.2451 71.1636 70.5713Z" fill="white"/>
<path fill-rule="evenodd" clip-rule="evenodd" d="M72.6167 70.5713C72.6167 79.6999 65.2165 87.1002 56.0878 87.1002C46.9591 87.1002 39.5589 79.6999 39.5589 70.5713C39.5589 61.4426 46.9591 54.0423 56.0878 54.0423C65.2165 54.0423 72.6167 61.4426 72.6167 70.5713ZM56.0878 85.6471C64.4139 85.6471 71.1636 78.8974 71.1636 70.5713C71.1636 62.2451 64.4139 55.4955 56.0878 55.4955C47.7617 55.4955 41.012 62.2451 41.012 70.5713C41.012 78.8974 47.7617 85.6471 56.0878 85.6471Z" fill="#001826"/>
<path fill-rule="evenodd" clip-rule="evenodd" d="M65.7237 70.5712C65.7237 75.8932 61.4094 80.2074 56.0875 80.2074C50.7656 80.2074 46.4513 75.8932 46.4513 70.5712C46.4513 65.2493 50.7656 60.9351 56.0875 60.9351C61.4094 60.9351 65.7237 65.2493 65.7237 70.5712ZM56.0875 78.7543C60.6069 78.7543 64.2706 75.0906 64.2706 70.5712C64.2706 66.0519 60.6069 62.3882 56.0875 62.3882C51.5681 62.3882 47.9044 66.0519 47.9044 70.5712C47.9044 75.0906 51.5681 78.7543 56.0875 78.7543Z" fill="#001826"/>
</svg>
