<svg width="37" height="41" viewBox="0 0 37 41" fill="none" xmlns="http://www.w3.org/2000/svg">
<path fill-rule="evenodd" clip-rule="evenodd" d="M12.3797 37.8291C8.84672 36.8376 5.14783 36.3375 1.55966 35.8793C0.786824 35.7832 0.0692983 36.3193 0.0140958 37.0744C-0.0963094 37.8302 0.45604 38.5213 1.17367 38.6173C4.65144 39.0584 8.23928 39.5304 11.6066 40.4848C12.3243 40.6919 13.0974 40.2657 13.3182 39.5326C13.539 38.8001 13.0973 38.0366 12.3797 37.8291Z" fill="#001826"/>
<path fill-rule="evenodd" clip-rule="evenodd" d="M23.0885 23.7729C17.4027 17.9706 10.9992 12.9151 5.42371 6.95708C4.92689 6.40064 4.04364 6.37083 3.49162 6.89029C2.93959 7.41029 2.88461 8.2847 3.43663 8.84114C9.01209 14.8163 15.4156 19.8883 21.1015 25.7077C21.6535 26.2509 22.5365 26.2587 23.0885 25.7243C23.5854 25.1905 23.6406 24.3161 23.0885 23.7729Z" fill="#001826"/>
<path fill-rule="evenodd" clip-rule="evenodd" d="M33.7434 1.45501C33.909 4.77599 34.0743 8.09698 34.2399 11.4185C34.2399 12.1792 34.9026 12.7666 35.6755 12.7296C36.4483 12.692 37 12.0445 37 11.2833C36.8344 7.95677 36.6691 4.63081 36.5035 1.30485C36.4483 0.544163 35.7858 -0.0393281 35.0129 0.00207387C34.2953 0.0434758 33.6882 0.694868 33.7434 1.45501Z" fill="#001826"/>
</svg>
