<svg width="438" height="640" viewBox="0 0 438 640" fill="none" xmlns="http://www.w3.org/2000/svg">
<path d="M4.21154 0L7.85884 7.5H0.564239L4.21154 0Z" fill="#0077BE"/>
<path d="M4.21154 0L7.85884 7.5H0.564239L4.21154 0Z" fill="#0077BE"/>
<path d="M4.21154 30L7.85884 37.5H0.564239L4.21154 30Z" fill="#0077BE"/>
<path d="M4.21154 60L7.85884 67.5H0.564239L4.21154 60Z" fill="#0077BE"/>
<path d="M4.21154 90L7.85884 97.5H0.564239L4.21154 90Z" fill="#0077BE"/>
<path d="M4.21154 120L7.85884 127.5H0.564239L4.21154 120Z" fill="#0077BE"/>
<path d="M4.21154 150L7.85884 157.5H0.564239L4.21154 150Z" fill="#0077BE"/>
<path d="M4.21154 180L7.85884 187.5H0.564239L4.21154 180Z" fill="#0077BE"/>
<path d="M4.21154 210L7.85884 217.5H0.564239L4.21154 210Z" fill="#0077BE"/>
<path d="M4.21154 240L7.85884 247.5H0.564239L4.21154 240Z" fill="#0077BE"/>
<path d="M4.21154 270L7.85884 277.5H0.564239L4.21154 270Z" fill="#0077BE"/>
<path d="M4.21154 300L7.85884 307.5H0.564239L4.21154 300Z" fill="#0077BE"/>
<path d="M4.21154 330L7.85884 337.5H0.564239L4.21154 330Z" fill="#0077BE"/>
<path d="M4.21154 360L7.85884 367.5H0.564239L4.21154 360Z" fill="#0077BE"/>
<path d="M4.21154 390L7.85884 397.5H0.564239L4.21154 390Z" fill="#0077BE"/>
<path d="M4.21154 420L7.85884 427.5H0.564239L4.21154 420Z" fill="#0077BE"/>
<path d="M4.21154 450L7.85884 457.5H0.564239L4.21154 450Z" fill="#0077BE"/>
<path d="M4.21154 480L7.85884 487.5H0.564239L4.21154 480Z" fill="#0077BE"/>
<path d="M4.21154 510L7.85884 517.5H0.564239L4.21154 510Z" fill="#0077BE"/>
<path d="M4.21154 540L7.85884 547.5H0.564239L4.21154 540Z" fill="#0077BE"/>
<path d="M4.21154 570L7.85884 577.5H0.564239L4.21154 570Z" fill="#0077BE"/>
<path d="M4.21154 600L7.85884 607.5H0.564239L4.21154 600Z" fill="#0077BE"/>
<path d="M4.21154 630L7.85884 637.5H0.564239L4.21154 630Z" fill="#0077BE"/>
<path d="M4.21154 0L7.85884 7.5H0.564239L4.21154 0Z" fill="#0077BE"/>
<path d="M4.21154 0L7.85884 7.5H0.564239L4.21154 0Z" fill="#0077BE"/>
<path d="M4.21154 30L7.85884 37.5H0.564239L4.21154 30Z" fill="#0077BE"/>
<path d="M4.21154 60L7.85884 67.5H0.564239L4.21154 60Z" fill="#0077BE"/>
<path d="M4.21154 90L7.85884 97.5H0.564239L4.21154 90Z" fill="#0077BE"/>
<path d="M4.21154 120L7.85884 127.5H0.564239L4.21154 120Z" fill="#0077BE"/>
<path d="M4.21154 150L7.85884 157.5H0.564239L4.21154 150Z" fill="#0077BE"/>
<path d="M4.21154 180L7.85884 187.5H0.564239L4.21154 180Z" fill="#0077BE"/>
<path d="M4.21154 210L7.85884 217.5H0.564239L4.21154 210Z" fill="#0077BE"/>
<path d="M4.21154 240L7.85884 247.5H0.564239L4.21154 240Z" fill="#0077BE"/>
<path d="M4.21154 270L7.85884 277.5H0.564239L4.21154 270Z" fill="#0077BE"/>
<path d="M4.21154 300L7.85884 307.5H0.564239L4.21154 300Z" fill="#0077BE"/>
<path d="M4.21154 330L7.85884 337.5H0.564239L4.21154 330Z" fill="#0077BE"/>
<path d="M4.21154 360L7.85884 367.5H0.564239L4.21154 360Z" fill="#0077BE"/>
<path d="M4.21154 390L7.85884 397.5H0.564239L4.21154 390Z" fill="#0077BE"/>
<path d="M4.21154 420L7.85884 427.5H0.564239L4.21154 420Z" fill="#0077BE"/>
<path d="M4.21154 450L7.85884 457.5H0.564239L4.21154 450Z" fill="#0077BE"/>
<path d="M4.21154 480L7.85884 487.5H0.564239L4.21154 480Z" fill="#0077BE"/>
<path d="M4.21154 510L7.85884 517.5H0.564239L4.21154 510Z" fill="#0077BE"/>
<path d="M4.21154 540L7.85884 547.5H0.564239L4.21154 540Z" fill="#0077BE"/>
<path d="M4.21154 570L7.85884 577.5H0.564239L4.21154 570Z" fill="#0077BE"/>
<path d="M4.21154 600L7.85884 607.5H0.564239L4.21154 600Z" fill="#0077BE"/>
<path d="M4.21154 630L7.85884 637.5H0.564239L4.21154 630Z" fill="#0077BE"/>
<path d="M29.4808 0L33.1281 7.5H25.8335L29.4808 0Z" fill="#0077BE"/>
<path d="M29.4808 0L33.1281 7.5H25.8335L29.4808 0Z" fill="#0077BE"/>
<path d="M29.4808 30L33.1281 37.5H25.8335L29.4808 30Z" fill="#0077BE"/>
<path d="M29.4808 60L33.1281 67.5H25.8335L29.4808 60Z" fill="#0077BE"/>
<path d="M29.4808 90L33.1281 97.5H25.8335L29.4808 90Z" fill="#0077BE"/>
<path d="M29.4808 120L33.1281 127.5H25.8335L29.4808 120Z" fill="#0077BE"/>
<path d="M29.4808 150L33.1281 157.5H25.8335L29.4808 150Z" fill="#0077BE"/>
<path d="M29.4808 180L33.1281 187.5H25.8335L29.4808 180Z" fill="#0077BE"/>
<path d="M29.4808 210L33.1281 217.5H25.8335L29.4808 210Z" fill="#0077BE"/>
<path d="M29.4808 240L33.1281 247.5H25.8335L29.4808 240Z" fill="#0077BE"/>
<path d="M29.4808 270L33.1281 277.5H25.8335L29.4808 270Z" fill="#0077BE"/>
<path d="M29.4808 300L33.1281 307.5H25.8335L29.4808 300Z" fill="#0077BE"/>
<path d="M29.4808 330L33.1281 337.5H25.8335L29.4808 330Z" fill="#0077BE"/>
<path d="M29.4808 360L33.1281 367.5H25.8335L29.4808 360Z" fill="#0077BE"/>
<path d="M29.4808 390L33.1281 397.5H25.8335L29.4808 390Z" fill="#0077BE"/>
<path d="M29.4808 420L33.1281 427.5H25.8335L29.4808 420Z" fill="#0077BE"/>
<path d="M29.4808 450L33.1281 457.5H25.8335L29.4808 450Z" fill="#0077BE"/>
<path d="M29.4808 480L33.1281 487.5H25.8335L29.4808 480Z" fill="#0077BE"/>
<path d="M29.4808 510L33.1281 517.5H25.8335L29.4808 510Z" fill="#0077BE"/>
<path d="M29.4808 540L33.1281 547.5H25.8335L29.4808 540Z" fill="#0077BE"/>
<path d="M29.4808 570L33.1281 577.5H25.8335L29.4808 570Z" fill="#0077BE"/>
<path d="M29.4808 600L33.1281 607.5H25.8335L29.4808 600Z" fill="#0077BE"/>
<path d="M29.4808 630L33.1281 637.5H25.8335L29.4808 630Z" fill="#0077BE"/>
<path d="M54.75 0L58.3973 7.5H51.1027L54.75 0Z" fill="#0077BE"/>
<path d="M54.75 0L58.3973 7.5H51.1027L54.75 0Z" fill="#0077BE"/>
<path d="M54.75 30L58.3973 37.5H51.1027L54.75 30Z" fill="#0077BE"/>
<path d="M54.75 60L58.3973 67.5H51.1027L54.75 60Z" fill="#0077BE"/>
<path d="M54.75 90L58.3973 97.5H51.1027L54.75 90Z" fill="#0077BE"/>
<path d="M54.75 120L58.3973 127.5H51.1027L54.75 120Z" fill="#0077BE"/>
<path d="M54.75 150L58.3973 157.5H51.1027L54.75 150Z" fill="#0077BE"/>
<path d="M54.75 180L58.3973 187.5H51.1027L54.75 180Z" fill="#0077BE"/>
<path d="M54.75 210L58.3973 217.5H51.1027L54.75 210Z" fill="#0077BE"/>
<path d="M54.75 240L58.3973 247.5H51.1027L54.75 240Z" fill="#0077BE"/>
<path d="M54.75 270L58.3973 277.5H51.1027L54.75 270Z" fill="#0077BE"/>
<path d="M54.75 300L58.3973 307.5H51.1027L54.75 300Z" fill="#0077BE"/>
<path d="M54.75 330L58.3973 337.5H51.1027L54.75 330Z" fill="#0077BE"/>
<path d="M54.75 360L58.3973 367.5H51.1027L54.75 360Z" fill="#0077BE"/>
<path d="M54.75 390L58.3973 397.5H51.1027L54.75 390Z" fill="#0077BE"/>
<path d="M54.75 420L58.3973 427.5H51.1027L54.75 420Z" fill="#0077BE"/>
<path d="M54.75 450L58.3973 457.5H51.1027L54.75 450Z" fill="#0077BE"/>
<path d="M54.75 480L58.3973 487.5H51.1027L54.75 480Z" fill="#0077BE"/>
<path d="M54.75 510L58.3973 517.5H51.1027L54.75 510Z" fill="#0077BE"/>
<path d="M54.75 540L58.3973 547.5H51.1027L54.75 540Z" fill="#0077BE"/>
<path d="M54.75 570L58.3973 577.5H51.1027L54.75 570Z" fill="#0077BE"/>
<path d="M54.75 600L58.3973 607.5H51.1027L54.75 600Z" fill="#0077BE"/>
<path d="M54.75 630L58.3973 637.5H51.1027L54.75 630Z" fill="#0077BE"/>
<path d="M80.0193 0L83.6666 7.5H76.372L80.0193 0Z" fill="#0077BE"/>
<path d="M80.0193 0L83.6666 7.5H76.372L80.0193 0Z" fill="#0077BE"/>
<path d="M80.0193 30L83.6666 37.5H76.372L80.0193 30Z" fill="#0077BE"/>
<path d="M80.0193 60L83.6666 67.5H76.372L80.0193 60Z" fill="#0077BE"/>
<path d="M80.0193 90L83.6666 97.5H76.372L80.0193 90Z" fill="#0077BE"/>
<path d="M80.0193 120L83.6666 127.5H76.372L80.0193 120Z" fill="#0077BE"/>
<path d="M80.0193 150L83.6666 157.5H76.372L80.0193 150Z" fill="#0077BE"/>
<path d="M80.0193 180L83.6666 187.5H76.372L80.0193 180Z" fill="#0077BE"/>
<path d="M80.0193 210L83.6666 217.5H76.372L80.0193 210Z" fill="#0077BE"/>
<path d="M80.0193 240L83.6666 247.5H76.372L80.0193 240Z" fill="#0077BE"/>
<path d="M80.0193 270L83.6666 277.5H76.372L80.0193 270Z" fill="#0077BE"/>
<path d="M80.0193 300L83.6666 307.5H76.372L80.0193 300Z" fill="#0077BE"/>
<path d="M80.0193 330L83.6666 337.5H76.372L80.0193 330Z" fill="#0077BE"/>
<path d="M80.0193 360L83.6666 367.5H76.372L80.0193 360Z" fill="#0077BE"/>
<path d="M80.0193 390L83.6666 397.5H76.372L80.0193 390Z" fill="#0077BE"/>
<path d="M80.0193 420L83.6666 427.5H76.372L80.0193 420Z" fill="#0077BE"/>
<path d="M80.0193 450L83.6666 457.5H76.372L80.0193 450Z" fill="#0077BE"/>
<path d="M80.0193 480L83.6666 487.5H76.372L80.0193 480Z" fill="#0077BE"/>
<path d="M80.0193 510L83.6666 517.5H76.372L80.0193 510Z" fill="#0077BE"/>
<path d="M80.0193 540L83.6666 547.5H76.372L80.0193 540Z" fill="#0077BE"/>
<path d="M80.0193 570L83.6666 577.5H76.372L80.0193 570Z" fill="#0077BE"/>
<path d="M80.0193 600L83.6666 607.5H76.372L80.0193 600Z" fill="#0077BE"/>
<path d="M80.0193 630L83.6666 637.5H76.372L80.0193 630Z" fill="#0077BE"/>
<path d="M105.288 0L108.936 7.5H101.641L105.288 0Z" fill="#0077BE"/>
<path d="M105.288 0L108.936 7.5H101.641L105.288 0Z" fill="#0077BE"/>
<path d="M105.288 30L108.936 37.5H101.641L105.288 30Z" fill="#0077BE"/>
<path d="M105.288 60L108.936 67.5H101.641L105.288 60Z" fill="#0077BE"/>
<path d="M105.288 90L108.936 97.5H101.641L105.288 90Z" fill="#0077BE"/>
<path d="M105.288 120L108.936 127.5H101.641L105.288 120Z" fill="#0077BE"/>
<path d="M105.288 150L108.936 157.5H101.641L105.288 150Z" fill="#0077BE"/>
<path d="M105.288 180L108.936 187.5H101.641L105.288 180Z" fill="#0077BE"/>
<path d="M105.288 210L108.936 217.5H101.641L105.288 210Z" fill="#0077BE"/>
<path d="M105.288 240L108.936 247.5H101.641L105.288 240Z" fill="#0077BE"/>
<path d="M105.288 270L108.936 277.5H101.641L105.288 270Z" fill="#0077BE"/>
<path d="M105.288 300L108.936 307.5H101.641L105.288 300Z" fill="#0077BE"/>
<path d="M105.288 330L108.936 337.5H101.641L105.288 330Z" fill="#0077BE"/>
<path d="M105.288 360L108.936 367.5H101.641L105.288 360Z" fill="#0077BE"/>
<path d="M105.288 390L108.936 397.5H101.641L105.288 390Z" fill="#0077BE"/>
<path d="M105.288 420L108.936 427.5H101.641L105.288 420Z" fill="#0077BE"/>
<path d="M105.288 450L108.936 457.5H101.641L105.288 450Z" fill="#0077BE"/>
<path d="M105.288 480L108.936 487.5H101.641L105.288 480Z" fill="#0077BE"/>
<path d="M105.288 510L108.936 517.5H101.641L105.288 510Z" fill="#0077BE"/>
<path d="M105.288 540L108.936 547.5H101.641L105.288 540Z" fill="#0077BE"/>
<path d="M105.288 570L108.936 577.5H101.641L105.288 570Z" fill="#0077BE"/>
<path d="M105.288 600L108.936 607.5H101.641L105.288 600Z" fill="#0077BE"/>
<path d="M105.288 630L108.936 637.5H101.641L105.288 630Z" fill="#0077BE"/>
<path d="M130.558 0L134.205 7.5H126.91L130.558 0Z" fill="#0077BE"/>
<path d="M130.558 0L134.205 7.5H126.91L130.558 0Z" fill="#0077BE"/>
<path d="M130.558 30L134.205 37.5H126.91L130.558 30Z" fill="#0077BE"/>
<path d="M130.558 60L134.205 67.5H126.91L130.558 60Z" fill="#0077BE"/>
<path d="M130.558 90L134.205 97.5H126.91L130.558 90Z" fill="#0077BE"/>
<path d="M130.558 120L134.205 127.5H126.91L130.558 120Z" fill="#0077BE"/>
<path d="M130.558 150L134.205 157.5H126.91L130.558 150Z" fill="#0077BE"/>
<path d="M130.558 180L134.205 187.5H126.91L130.558 180Z" fill="#0077BE"/>
<path d="M130.558 210L134.205 217.5H126.91L130.558 210Z" fill="#0077BE"/>
<path d="M130.558 240L134.205 247.5H126.91L130.558 240Z" fill="#0077BE"/>
<path d="M130.558 270L134.205 277.5H126.91L130.558 270Z" fill="#0077BE"/>
<path d="M130.558 300L134.205 307.5H126.91L130.558 300Z" fill="#0077BE"/>
<path d="M130.558 330L134.205 337.5H126.91L130.558 330Z" fill="#0077BE"/>
<path d="M130.558 360L134.205 367.5H126.91L130.558 360Z" fill="#0077BE"/>
<path d="M130.558 390L134.205 397.5H126.91L130.558 390Z" fill="#0077BE"/>
<path d="M130.558 420L134.205 427.5H126.91L130.558 420Z" fill="#0077BE"/>
<path d="M130.558 450L134.205 457.5H126.91L130.558 450Z" fill="#0077BE"/>
<path d="M130.558 480L134.205 487.5H126.91L130.558 480Z" fill="#0077BE"/>
<path d="M130.558 510L134.205 517.5H126.91L130.558 510Z" fill="#0077BE"/>
<path d="M130.558 540L134.205 547.5H126.91L130.558 540Z" fill="#0077BE"/>
<path d="M130.558 570L134.205 577.5H126.91L130.558 570Z" fill="#0077BE"/>
<path d="M130.558 600L134.205 607.5H126.91L130.558 600Z" fill="#0077BE"/>
<path d="M130.558 630L134.205 637.5H126.91L130.558 630Z" fill="#0077BE"/>
<path d="M155.827 0L159.474 7.5H152.18L155.827 0Z" fill="#0077BE"/>
<path d="M155.827 0L159.474 7.5H152.18L155.827 0Z" fill="#0077BE"/>
<path d="M155.827 30L159.474 37.5H152.18L155.827 30Z" fill="#0077BE"/>
<path d="M155.827 60L159.474 67.5H152.18L155.827 60Z" fill="#0077BE"/>
<path d="M155.827 90L159.474 97.5H152.18L155.827 90Z" fill="#0077BE"/>
<path d="M155.827 120L159.474 127.5H152.18L155.827 120Z" fill="#0077BE"/>
<path d="M155.827 150L159.474 157.5H152.18L155.827 150Z" fill="#0077BE"/>
<path d="M155.827 180L159.474 187.5H152.18L155.827 180Z" fill="#0077BE"/>
<path d="M155.827 210L159.474 217.5H152.18L155.827 210Z" fill="#0077BE"/>
<path d="M155.827 240L159.474 247.5H152.18L155.827 240Z" fill="#0077BE"/>
<path d="M155.827 270L159.474 277.5H152.18L155.827 270Z" fill="#0077BE"/>
<path d="M155.827 300L159.474 307.5H152.18L155.827 300Z" fill="#0077BE"/>
<path d="M155.827 330L159.474 337.5H152.18L155.827 330Z" fill="#0077BE"/>
<path d="M155.827 360L159.474 367.5H152.18L155.827 360Z" fill="#0077BE"/>
<path d="M155.827 390L159.474 397.5H152.18L155.827 390Z" fill="#0077BE"/>
<path d="M155.827 420L159.474 427.5H152.18L155.827 420Z" fill="#0077BE"/>
<path d="M155.827 450L159.474 457.5H152.18L155.827 450Z" fill="#0077BE"/>
<path d="M155.827 480L159.474 487.5H152.18L155.827 480Z" fill="#0077BE"/>
<path d="M155.827 510L159.474 517.5H152.18L155.827 510Z" fill="#0077BE"/>
<path d="M155.827 540L159.474 547.5H152.18L155.827 540Z" fill="#0077BE"/>
<path d="M155.827 570L159.474 577.5H152.18L155.827 570Z" fill="#0077BE"/>
<path d="M155.827 600L159.474 607.5H152.18L155.827 600Z" fill="#0077BE"/>
<path d="M155.827 630L159.474 637.5H152.18L155.827 630Z" fill="#0077BE"/>
<path d="M181.096 0L184.743 7.5H177.449L181.096 0Z" fill="#0077BE"/>
<path d="M181.096 0L184.743 7.5H177.449L181.096 0Z" fill="#0077BE"/>
<path d="M181.096 30L184.743 37.5H177.449L181.096 30Z" fill="#0077BE"/>
<path d="M181.096 60L184.743 67.5H177.449L181.096 60Z" fill="#0077BE"/>
<path d="M181.096 90L184.743 97.5H177.449L181.096 90Z" fill="#0077BE"/>
<path d="M181.096 120L184.743 127.5H177.449L181.096 120Z" fill="#0077BE"/>
<path d="M181.096 150L184.743 157.5H177.449L181.096 150Z" fill="#0077BE"/>
<path d="M181.096 180L184.743 187.5H177.449L181.096 180Z" fill="#0077BE"/>
<path d="M181.096 210L184.743 217.5H177.449L181.096 210Z" fill="#0077BE"/>
<path d="M181.096 240L184.743 247.5H177.449L181.096 240Z" fill="#0077BE"/>
<path d="M181.096 270L184.743 277.5H177.449L181.096 270Z" fill="#0077BE"/>
<path d="M181.096 300L184.743 307.5H177.449L181.096 300Z" fill="#0077BE"/>
<path d="M181.096 330L184.743 337.5H177.449L181.096 330Z" fill="#0077BE"/>
<path d="M181.096 360L184.743 367.5H177.449L181.096 360Z" fill="#0077BE"/>
<path d="M181.096 390L184.743 397.5H177.449L181.096 390Z" fill="#0077BE"/>
<path d="M181.096 420L184.743 427.5H177.449L181.096 420Z" fill="#0077BE"/>
<path d="M181.096 450L184.743 457.5H177.449L181.096 450Z" fill="#0077BE"/>
<path d="M181.096 480L184.743 487.5H177.449L181.096 480Z" fill="#0077BE"/>
<path d="M181.096 510L184.743 517.5H177.449L181.096 510Z" fill="#0077BE"/>
<path d="M181.096 540L184.743 547.5H177.449L181.096 540Z" fill="#0077BE"/>
<path d="M181.096 570L184.743 577.5H177.449L181.096 570Z" fill="#0077BE"/>
<path d="M181.096 600L184.743 607.5H177.449L181.096 600Z" fill="#0077BE"/>
<path d="M181.096 630L184.743 637.5H177.449L181.096 630Z" fill="#0077BE"/>
<path d="M206.365 0L210.013 7.5H202.718L206.365 0Z" fill="#0077BE"/>
<path d="M206.365 0L210.013 7.5H202.718L206.365 0Z" fill="#0077BE"/>
<path d="M206.365 30L210.013 37.5H202.718L206.365 30Z" fill="#0077BE"/>
<path d="M206.365 60L210.013 67.5H202.718L206.365 60Z" fill="#0077BE"/>
<path d="M206.365 90L210.013 97.5H202.718L206.365 90Z" fill="#0077BE"/>
<path d="M206.365 120L210.013 127.5H202.718L206.365 120Z" fill="#0077BE"/>
<path d="M206.365 150L210.013 157.5H202.718L206.365 150Z" fill="#0077BE"/>
<path d="M206.365 180L210.013 187.5H202.718L206.365 180Z" fill="#0077BE"/>
<path d="M206.365 210L210.013 217.5H202.718L206.365 210Z" fill="#0077BE"/>
<path d="M206.365 240L210.013 247.5H202.718L206.365 240Z" fill="#0077BE"/>
<path d="M206.365 270L210.013 277.5H202.718L206.365 270Z" fill="#0077BE"/>
<path d="M206.365 300L210.013 307.5H202.718L206.365 300Z" fill="#0077BE"/>
<path d="M206.365 330L210.013 337.5H202.718L206.365 330Z" fill="#0077BE"/>
<path d="M206.365 360L210.013 367.5H202.718L206.365 360Z" fill="#0077BE"/>
<path d="M206.365 390L210.013 397.5H202.718L206.365 390Z" fill="#0077BE"/>
<path d="M206.365 420L210.013 427.5H202.718L206.365 420Z" fill="#0077BE"/>
<path d="M206.365 450L210.013 457.5H202.718L206.365 450Z" fill="#0077BE"/>
<path d="M206.365 480L210.013 487.5H202.718L206.365 480Z" fill="#0077BE"/>
<path d="M206.365 510L210.013 517.5H202.718L206.365 510Z" fill="#0077BE"/>
<path d="M206.365 540L210.013 547.5H202.718L206.365 540Z" fill="#0077BE"/>
<path d="M206.365 570L210.013 577.5H202.718L206.365 570Z" fill="#0077BE"/>
<path d="M206.365 600L210.013 607.5H202.718L206.365 600Z" fill="#0077BE"/>
<path d="M206.365 630L210.013 637.5H202.718L206.365 630Z" fill="#0077BE"/>
<path d="M231.635 0L235.282 7.5H227.987L231.635 0Z" fill="#0077BE"/>
<path d="M231.635 0L235.282 7.5H227.987L231.635 0Z" fill="#0077BE"/>
<path d="M231.635 30L235.282 37.5H227.987L231.635 30Z" fill="#0077BE"/>
<path d="M231.635 60L235.282 67.5H227.987L231.635 60Z" fill="#0077BE"/>
<path d="M231.635 90L235.282 97.5H227.987L231.635 90Z" fill="#0077BE"/>
<path d="M231.635 120L235.282 127.5H227.987L231.635 120Z" fill="#0077BE"/>
<path d="M231.635 150L235.282 157.5H227.987L231.635 150Z" fill="#0077BE"/>
<path d="M231.635 180L235.282 187.5H227.987L231.635 180Z" fill="#0077BE"/>
<path d="M231.635 210L235.282 217.5H227.987L231.635 210Z" fill="#0077BE"/>
<path d="M231.635 240L235.282 247.5H227.987L231.635 240Z" fill="#0077BE"/>
<path d="M231.635 270L235.282 277.5H227.987L231.635 270Z" fill="#0077BE"/>
<path d="M231.635 300L235.282 307.5H227.987L231.635 300Z" fill="#0077BE"/>
<path d="M231.635 330L235.282 337.5H227.987L231.635 330Z" fill="#0077BE"/>
<path d="M231.635 360L235.282 367.5H227.987L231.635 360Z" fill="#0077BE"/>
<path d="M231.635 390L235.282 397.5H227.987L231.635 390Z" fill="#0077BE"/>
<path d="M231.635 420L235.282 427.5H227.987L231.635 420Z" fill="#0077BE"/>
<path d="M231.635 450L235.282 457.5H227.987L231.635 450Z" fill="#0077BE"/>
<path d="M231.635 480L235.282 487.5H227.987L231.635 480Z" fill="#0077BE"/>
<path d="M231.635 510L235.282 517.5H227.987L231.635 510Z" fill="#0077BE"/>
<path d="M231.635 540L235.282 547.5H227.987L231.635 540Z" fill="#0077BE"/>
<path d="M231.635 570L235.282 577.5H227.987L231.635 570Z" fill="#0077BE"/>
<path d="M231.635 600L235.282 607.5H227.987L231.635 600Z" fill="#0077BE"/>
<path d="M231.635 630L235.282 637.5H227.987L231.635 630Z" fill="#0077BE"/>
<path d="M256.904 0L260.551 7.5H253.257L256.904 0Z" fill="#0077BE"/>
<path d="M256.904 0L260.551 7.5H253.257L256.904 0Z" fill="#0077BE"/>
<path d="M256.904 30L260.551 37.5H253.257L256.904 30Z" fill="#0077BE"/>
<path d="M256.904 60L260.551 67.5H253.257L256.904 60Z" fill="#0077BE"/>
<path d="M256.904 90L260.551 97.5H253.257L256.904 90Z" fill="#0077BE"/>
<path d="M256.904 120L260.551 127.5H253.257L256.904 120Z" fill="#0077BE"/>
<path d="M256.904 150L260.551 157.5H253.257L256.904 150Z" fill="#0077BE"/>
<path d="M256.904 180L260.551 187.5H253.257L256.904 180Z" fill="#0077BE"/>
<path d="M256.904 210L260.551 217.5H253.257L256.904 210Z" fill="#0077BE"/>
<path d="M256.904 240L260.551 247.5H253.257L256.904 240Z" fill="#0077BE"/>
<path d="M256.904 270L260.551 277.5H253.257L256.904 270Z" fill="#0077BE"/>
<path d="M256.904 300L260.551 307.5H253.257L256.904 300Z" fill="#0077BE"/>
<path d="M256.904 330L260.551 337.5H253.257L256.904 330Z" fill="#0077BE"/>
<path d="M256.904 360L260.551 367.5H253.257L256.904 360Z" fill="#0077BE"/>
<path d="M256.904 390L260.551 397.5H253.257L256.904 390Z" fill="#0077BE"/>
<path d="M256.904 420L260.551 427.5H253.257L256.904 420Z" fill="#0077BE"/>
<path d="M256.904 450L260.551 457.5H253.257L256.904 450Z" fill="#0077BE"/>
<path d="M256.904 480L260.551 487.5H253.257L256.904 480Z" fill="#0077BE"/>
<path d="M256.904 510L260.551 517.5H253.257L256.904 510Z" fill="#0077BE"/>
<path d="M256.904 540L260.551 547.5H253.257L256.904 540Z" fill="#0077BE"/>
<path d="M256.904 570L260.551 577.5H253.257L256.904 570Z" fill="#0077BE"/>
<path d="M256.904 600L260.551 607.5H253.257L256.904 600Z" fill="#0077BE"/>
<path d="M256.904 630L260.551 637.5H253.257L256.904 630Z" fill="#0077BE"/>
<path d="M282.173 0L285.82 7.5H278.526L282.173 0Z" fill="#0077BE"/>
<path d="M282.173 0L285.82 7.5H278.526L282.173 0Z" fill="#0077BE"/>
<path d="M282.173 30L285.82 37.5H278.526L282.173 30Z" fill="#0077BE"/>
<path d="M282.173 60L285.82 67.5H278.526L282.173 60Z" fill="#0077BE"/>
<path d="M282.173 90L285.82 97.5H278.526L282.173 90Z" fill="#0077BE"/>
<path d="M282.173 120L285.82 127.5H278.526L282.173 120Z" fill="#0077BE"/>
<path d="M282.173 150L285.82 157.5H278.526L282.173 150Z" fill="#0077BE"/>
<path d="M282.173 180L285.82 187.5H278.526L282.173 180Z" fill="#0077BE"/>
<path d="M282.173 210L285.82 217.5H278.526L282.173 210Z" fill="#0077BE"/>
<path d="M282.173 240L285.82 247.5H278.526L282.173 240Z" fill="#0077BE"/>
<path d="M282.173 270L285.82 277.5H278.526L282.173 270Z" fill="#0077BE"/>
<path d="M282.173 300L285.82 307.5H278.526L282.173 300Z" fill="#0077BE"/>
<path d="M282.173 330L285.82 337.5H278.526L282.173 330Z" fill="#0077BE"/>
<path d="M282.173 360L285.82 367.5H278.526L282.173 360Z" fill="#0077BE"/>
<path d="M282.173 390L285.82 397.5H278.526L282.173 390Z" fill="#0077BE"/>
<path d="M282.173 420L285.82 427.5H278.526L282.173 420Z" fill="#0077BE"/>
<path d="M282.173 450L285.82 457.5H278.526L282.173 450Z" fill="#0077BE"/>
<path d="M282.173 480L285.82 487.5H278.526L282.173 480Z" fill="#0077BE"/>
<path d="M282.173 510L285.82 517.5H278.526L282.173 510Z" fill="#0077BE"/>
<path d="M282.173 540L285.82 547.5H278.526L282.173 540Z" fill="#0077BE"/>
<path d="M282.173 570L285.82 577.5H278.526L282.173 570Z" fill="#0077BE"/>
<path d="M282.173 600L285.82 607.5H278.526L282.173 600Z" fill="#0077BE"/>
<path d="M282.173 630L285.82 637.5H278.526L282.173 630Z" fill="#0077BE"/>
<path d="M307.442 0L311.09 7.5H303.795L307.442 0Z" fill="#0077BE"/>
<path d="M307.442 0L311.09 7.5H303.795L307.442 0Z" fill="#0077BE"/>
<path d="M307.442 30L311.09 37.5H303.795L307.442 30Z" fill="#0077BE"/>
<path d="M307.442 60L311.09 67.5H303.795L307.442 60Z" fill="#0077BE"/>
<path d="M307.442 90L311.09 97.5H303.795L307.442 90Z" fill="#0077BE"/>
<path d="M307.442 120L311.09 127.5H303.795L307.442 120Z" fill="#0077BE"/>
<path d="M307.442 150L311.09 157.5H303.795L307.442 150Z" fill="#0077BE"/>
<path d="M307.442 180L311.09 187.5H303.795L307.442 180Z" fill="#0077BE"/>
<path d="M307.442 210L311.09 217.5H303.795L307.442 210Z" fill="#0077BE"/>
<path d="M307.442 240L311.09 247.5H303.795L307.442 240Z" fill="#0077BE"/>
<path d="M307.442 270L311.09 277.5H303.795L307.442 270Z" fill="#0077BE"/>
<path d="M307.442 300L311.09 307.5H303.795L307.442 300Z" fill="#0077BE"/>
<path d="M307.442 330L311.09 337.5H303.795L307.442 330Z" fill="#0077BE"/>
<path d="M307.442 360L311.09 367.5H303.795L307.442 360Z" fill="#0077BE"/>
<path d="M307.442 390L311.09 397.5H303.795L307.442 390Z" fill="#0077BE"/>
<path d="M307.442 420L311.09 427.5H303.795L307.442 420Z" fill="#0077BE"/>
<path d="M307.442 450L311.09 457.5H303.795L307.442 450Z" fill="#0077BE"/>
<path d="M307.442 480L311.09 487.5H303.795L307.442 480Z" fill="#0077BE"/>
<path d="M307.442 510L311.09 517.5H303.795L307.442 510Z" fill="#0077BE"/>
<path d="M307.442 540L311.09 547.5H303.795L307.442 540Z" fill="#0077BE"/>
<path d="M307.442 570L311.09 577.5H303.795L307.442 570Z" fill="#0077BE"/>
<path d="M307.442 600L311.09 607.5H303.795L307.442 600Z" fill="#0077BE"/>
<path d="M307.442 630L311.09 637.5H303.795L307.442 630Z" fill="#0077BE"/>
<path d="M332.712 0L336.359 7.5H329.064L332.712 0Z" fill="#0077BE"/>
<path d="M332.712 0L336.359 7.5H329.064L332.712 0Z" fill="#0077BE"/>
<path d="M332.712 30L336.359 37.5H329.064L332.712 30Z" fill="#0077BE"/>
<path d="M332.712 60L336.359 67.5H329.064L332.712 60Z" fill="#0077BE"/>
<path d="M332.712 90L336.359 97.5H329.064L332.712 90Z" fill="#0077BE"/>
<path d="M332.712 120L336.359 127.5H329.064L332.712 120Z" fill="#0077BE"/>
<path d="M332.712 150L336.359 157.5H329.064L332.712 150Z" fill="#0077BE"/>
<path d="M332.712 180L336.359 187.5H329.064L332.712 180Z" fill="#0077BE"/>
<path d="M332.712 210L336.359 217.5H329.064L332.712 210Z" fill="#0077BE"/>
<path d="M332.712 240L336.359 247.5H329.064L332.712 240Z" fill="#0077BE"/>
<path d="M332.712 270L336.359 277.5H329.064L332.712 270Z" fill="#0077BE"/>
<path d="M332.712 300L336.359 307.5H329.064L332.712 300Z" fill="#0077BE"/>
<path d="M332.712 330L336.359 337.5H329.064L332.712 330Z" fill="#0077BE"/>
<path d="M332.712 360L336.359 367.5H329.064L332.712 360Z" fill="#0077BE"/>
<path d="M332.712 390L336.359 397.5H329.064L332.712 390Z" fill="#0077BE"/>
<path d="M332.712 420L336.359 427.5H329.064L332.712 420Z" fill="#0077BE"/>
<path d="M332.712 450L336.359 457.5H329.064L332.712 450Z" fill="#0077BE"/>
<path d="M332.712 480L336.359 487.5H329.064L332.712 480Z" fill="#0077BE"/>
<path d="M332.712 510L336.359 517.5H329.064L332.712 510Z" fill="#0077BE"/>
<path d="M332.712 540L336.359 547.5H329.064L332.712 540Z" fill="#0077BE"/>
<path d="M332.712 570L336.359 577.5H329.064L332.712 570Z" fill="#0077BE"/>
<path d="M332.712 600L336.359 607.5H329.064L332.712 600Z" fill="#0077BE"/>
<path d="M332.712 630L336.359 637.5H329.064L332.712 630Z" fill="#0077BE"/>
<path d="M357.981 0L361.628 7.5H354.333L357.981 0Z" fill="#0077BE"/>
<path d="M357.981 0L361.628 7.5H354.333L357.981 0Z" fill="#0077BE"/>
<path d="M357.981 30L361.628 37.5H354.333L357.981 30Z" fill="#0077BE"/>
<path d="M357.981 60L361.628 67.5H354.333L357.981 60Z" fill="#0077BE"/>
<path d="M357.981 90L361.628 97.5H354.333L357.981 90Z" fill="#0077BE"/>
<path d="M357.981 120L361.628 127.5H354.333L357.981 120Z" fill="#0077BE"/>
<path d="M357.981 150L361.628 157.5H354.333L357.981 150Z" fill="#0077BE"/>
<path d="M357.981 180L361.628 187.5H354.333L357.981 180Z" fill="#0077BE"/>
<path d="M357.981 210L361.628 217.5H354.333L357.981 210Z" fill="#0077BE"/>
<path d="M357.981 240L361.628 247.5H354.333L357.981 240Z" fill="#0077BE"/>
<path d="M357.981 270L361.628 277.5H354.333L357.981 270Z" fill="#0077BE"/>
<path d="M357.981 300L361.628 307.5H354.333L357.981 300Z" fill="#0077BE"/>
<path d="M357.981 330L361.628 337.5H354.333L357.981 330Z" fill="#0077BE"/>
<path d="M357.981 360L361.628 367.5H354.333L357.981 360Z" fill="#0077BE"/>
<path d="M357.981 390L361.628 397.5H354.333L357.981 390Z" fill="#0077BE"/>
<path d="M357.981 420L361.628 427.5H354.333L357.981 420Z" fill="#0077BE"/>
<path d="M357.981 450L361.628 457.5H354.333L357.981 450Z" fill="#0077BE"/>
<path d="M357.981 480L361.628 487.5H354.333L357.981 480Z" fill="#0077BE"/>
<path d="M357.981 510L361.628 517.5H354.333L357.981 510Z" fill="#0077BE"/>
<path d="M357.981 540L361.628 547.5H354.333L357.981 540Z" fill="#0077BE"/>
<path d="M357.981 570L361.628 577.5H354.333L357.981 570Z" fill="#0077BE"/>
<path d="M357.981 600L361.628 607.5H354.333L357.981 600Z" fill="#0077BE"/>
<path d="M357.981 630L361.628 637.5H354.333L357.981 630Z" fill="#0077BE"/>
<path d="M383.25 0L386.897 7.5H379.603L383.25 0Z" fill="#0077BE"/>
<path d="M383.25 0L386.897 7.5H379.603L383.25 0Z" fill="#0077BE"/>
<path d="M383.25 30L386.897 37.5H379.603L383.25 30Z" fill="#0077BE"/>
<path d="M383.25 60L386.897 67.5H379.603L383.25 60Z" fill="#0077BE"/>
<path d="M383.25 90L386.897 97.5H379.603L383.25 90Z" fill="#0077BE"/>
<path d="M383.25 120L386.897 127.5H379.603L383.25 120Z" fill="#0077BE"/>
<path d="M383.25 150L386.897 157.5H379.603L383.25 150Z" fill="#0077BE"/>
<path d="M383.25 180L386.897 187.5H379.603L383.25 180Z" fill="#0077BE"/>
<path d="M383.25 210L386.897 217.5H379.603L383.25 210Z" fill="#0077BE"/>
<path d="M383.25 240L386.897 247.5H379.603L383.25 240Z" fill="#0077BE"/>
<path d="M383.25 270L386.897 277.5H379.603L383.25 270Z" fill="#0077BE"/>
<path d="M383.25 300L386.897 307.5H379.603L383.25 300Z" fill="#0077BE"/>
<path d="M383.25 330L386.897 337.5H379.603L383.25 330Z" fill="#0077BE"/>
<path d="M383.25 360L386.897 367.5H379.603L383.25 360Z" fill="#0077BE"/>
<path d="M383.25 390L386.897 397.5H379.603L383.25 390Z" fill="#0077BE"/>
<path d="M383.25 420L386.897 427.5H379.603L383.25 420Z" fill="#0077BE"/>
<path d="M383.25 450L386.897 457.5H379.603L383.25 450Z" fill="#0077BE"/>
<path d="M383.25 480L386.897 487.5H379.603L383.25 480Z" fill="#0077BE"/>
<path d="M383.25 510L386.897 517.5H379.603L383.25 510Z" fill="#0077BE"/>
<path d="M383.25 540L386.897 547.5H379.603L383.25 540Z" fill="#0077BE"/>
<path d="M383.25 570L386.897 577.5H379.603L383.25 570Z" fill="#0077BE"/>
<path d="M383.25 600L386.897 607.5H379.603L383.25 600Z" fill="#0077BE"/>
<path d="M383.25 630L386.897 637.5H379.603L383.25 630Z" fill="#0077BE"/>
<path d="M408.519 0L412.166 7.5H404.872L408.519 0Z" fill="#0077BE"/>
<path d="M408.519 0L412.166 7.5H404.872L408.519 0Z" fill="#0077BE"/>
<path d="M408.519 30L412.166 37.5H404.872L408.519 30Z" fill="#0077BE"/>
<path d="M408.519 60L412.166 67.5H404.872L408.519 60Z" fill="#0077BE"/>
<path d="M408.519 90L412.166 97.5H404.872L408.519 90Z" fill="#0077BE"/>
<path d="M408.519 120L412.166 127.5H404.872L408.519 120Z" fill="#0077BE"/>
<path d="M408.519 150L412.166 157.5H404.872L408.519 150Z" fill="#0077BE"/>
<path d="M408.519 180L412.166 187.5H404.872L408.519 180Z" fill="#0077BE"/>
<path d="M408.519 210L412.166 217.5H404.872L408.519 210Z" fill="#0077BE"/>
<path d="M408.519 240L412.166 247.5H404.872L408.519 240Z" fill="#0077BE"/>
<path d="M408.519 270L412.166 277.5H404.872L408.519 270Z" fill="#0077BE"/>
<path d="M408.519 300L412.166 307.5H404.872L408.519 300Z" fill="#0077BE"/>
<path d="M408.519 330L412.166 337.5H404.872L408.519 330Z" fill="#0077BE"/>
<path d="M408.519 360L412.166 367.5H404.872L408.519 360Z" fill="#0077BE"/>
<path d="M408.519 390L412.166 397.5H404.872L408.519 390Z" fill="#0077BE"/>
<path d="M408.519 420L412.166 427.5H404.872L408.519 420Z" fill="#0077BE"/>
<path d="M408.519 450L412.166 457.5H404.872L408.519 450Z" fill="#0077BE"/>
<path d="M408.519 480L412.166 487.5H404.872L408.519 480Z" fill="#0077BE"/>
<path d="M408.519 510L412.166 517.5H404.872L408.519 510Z" fill="#0077BE"/>
<path d="M408.519 540L412.166 547.5H404.872L408.519 540Z" fill="#0077BE"/>
<path d="M408.519 570L412.166 577.5H404.872L408.519 570Z" fill="#0077BE"/>
<path d="M408.519 600L412.166 607.5H404.872L408.519 600Z" fill="#0077BE"/>
<path d="M408.519 630L412.166 637.5H404.872L408.519 630Z" fill="#0077BE"/>
<path d="M433.789 0L437.436 7.5H430.141L433.789 0Z" fill="#0077BE"/>
<path d="M433.789 0L437.436 7.5H430.141L433.789 0Z" fill="#0077BE"/>
<path d="M433.789 30L437.436 37.5H430.141L433.789 30Z" fill="#0077BE"/>
<path d="M433.789 60L437.436 67.5H430.141L433.789 60Z" fill="#0077BE"/>
<path d="M433.789 90L437.436 97.5H430.141L433.789 90Z" fill="#0077BE"/>
<path d="M433.789 120L437.436 127.5H430.141L433.789 120Z" fill="#0077BE"/>
<path d="M433.789 150L437.436 157.5H430.141L433.789 150Z" fill="#0077BE"/>
<path d="M433.789 180L437.436 187.5H430.141L433.789 180Z" fill="#0077BE"/>
<path d="M433.789 210L437.436 217.5H430.141L433.789 210Z" fill="#0077BE"/>
<path d="M433.789 240L437.436 247.5H430.141L433.789 240Z" fill="#0077BE"/>
<path d="M433.789 270L437.436 277.5H430.141L433.789 270Z" fill="#0077BE"/>
<path d="M433.789 300L437.436 307.5H430.141L433.789 300Z" fill="#0077BE"/>
<path d="M433.789 330L437.436 337.5H430.141L433.789 330Z" fill="#0077BE"/>
<path d="M433.789 360L437.436 367.5H430.141L433.789 360Z" fill="#0077BE"/>
<path d="M433.789 390L437.436 397.5H430.141L433.789 390Z" fill="#0077BE"/>
<path d="M433.789 420L437.436 427.5H430.141L433.789 420Z" fill="#0077BE"/>
<path d="M433.789 450L437.436 457.5H430.141L433.789 450Z" fill="#0077BE"/>
<path d="M433.789 480L437.436 487.5H430.141L433.789 480Z" fill="#0077BE"/>
<path d="M433.789 510L437.436 517.5H430.141L433.789 510Z" fill="#0077BE"/>
<path d="M433.789 540L437.436 547.5H430.141L433.789 540Z" fill="#0077BE"/>
<path d="M433.789 570L437.436 577.5H430.141L433.789 570Z" fill="#0077BE"/>
<path d="M433.789 600L437.436 607.5H430.141L433.789 600Z" fill="#0077BE"/>
<path d="M433.789 630L437.436 637.5H430.141L433.789 630Z" fill="#0077BE"/>
</svg>
