<svg width="531" height="437" viewBox="0 0 531 437" fill="none" xmlns="http://www.w3.org/2000/svg">
<path d="M530.615 432.518L524.404 428.888V436.149L530.615 432.518Z" fill="#0077BE"/>
<path d="M530.615 432.518L524.404 428.888V436.149L530.615 432.518Z" fill="#0077BE"/>
<path d="M505.772 432.518L499.561 428.888V436.149L505.772 432.518Z" fill="#0077BE"/>
<path d="M480.928 432.518L474.717 428.888V436.149L480.928 432.518Z" fill="#0077BE"/>
<path d="M456.084 432.518L449.873 428.888V436.149L456.084 432.518Z" fill="#0077BE"/>
<path d="M431.24 432.518L425.029 428.888V436.149L431.24 432.518Z" fill="#0077BE"/>
<path d="M406.397 432.518L400.186 428.888V436.149L406.397 432.518Z" fill="#0077BE"/>
<path d="M381.553 432.518L375.342 428.888V436.149L381.553 432.518Z" fill="#0077BE"/>
<path d="M356.709 432.518L350.498 428.888V436.149L356.709 432.518Z" fill="#0077BE"/>
<path d="M331.865 432.518L325.654 428.888V436.149L331.865 432.518Z" fill="#0077BE"/>
<path d="M307.022 432.518L300.811 428.888V436.149L307.022 432.518Z" fill="#0077BE"/>
<path d="M282.178 432.518L275.967 428.888V436.149L282.178 432.518Z" fill="#0077BE"/>
<path d="M257.334 432.518L251.123 428.888V436.149L257.334 432.518Z" fill="#0077BE"/>
<path d="M232.49 432.518L226.279 428.888V436.149L232.49 432.518Z" fill="#0077BE"/>
<path d="M207.647 432.518L201.436 428.888V436.149L207.647 432.518Z" fill="#0077BE"/>
<path d="M182.803 432.518L176.592 428.888V436.149L182.803 432.518Z" fill="#0077BE"/>
<path d="M157.959 432.518L151.748 428.888V436.149L157.959 432.518Z" fill="#0077BE"/>
<path d="M133.115 432.518L126.904 428.888V436.149L133.115 432.518Z" fill="#0077BE"/>
<path d="M108.272 432.518L102.061 428.888V436.149L108.272 432.518Z" fill="#0077BE"/>
<path d="M83.4278 432.518L77.2169 428.888V436.149L83.4278 432.518Z" fill="#0077BE"/>
<path d="M58.5841 432.518L52.3732 428.888V436.149L58.5841 432.518Z" fill="#0077BE"/>
<path d="M33.7404 432.518L27.5294 428.888V436.149L33.7404 432.518Z" fill="#0077BE"/>
<path d="M8.89655 432.518L2.68561 428.888L2.68561 436.149L8.89655 432.518Z" fill="#0077BE"/>
<path d="M530.615 432.518L524.404 428.888V436.149L530.615 432.518Z" fill="#0077BE"/>
<path d="M530.615 432.518L524.404 428.888V436.149L530.615 432.518Z" fill="#0077BE"/>
<path d="M505.772 432.518L499.561 428.888V436.149L505.772 432.518Z" fill="#0077BE"/>
<path d="M480.928 432.518L474.717 428.888V436.149L480.928 432.518Z" fill="#0077BE"/>
<path d="M456.084 432.518L449.873 428.888V436.149L456.084 432.518Z" fill="#0077BE"/>
<path d="M431.24 432.518L425.029 428.888V436.149L431.24 432.518Z" fill="#0077BE"/>
<path d="M406.397 432.518L400.186 428.888V436.149L406.397 432.518Z" fill="#0077BE"/>
<path d="M381.553 432.518L375.342 428.888V436.149L381.553 432.518Z" fill="#0077BE"/>
<path d="M356.709 432.518L350.498 428.888V436.149L356.709 432.518Z" fill="#0077BE"/>
<path d="M331.865 432.518L325.654 428.888V436.149L331.865 432.518Z" fill="#0077BE"/>
<path d="M307.022 432.518L300.811 428.888V436.149L307.022 432.518Z" fill="#0077BE"/>
<path d="M282.178 432.518L275.967 428.888V436.149L282.178 432.518Z" fill="#0077BE"/>
<path d="M257.334 432.518L251.123 428.888V436.149L257.334 432.518Z" fill="#0077BE"/>
<path d="M232.49 432.518L226.279 428.888V436.149L232.49 432.518Z" fill="#0077BE"/>
<path d="M207.647 432.518L201.436 428.888V436.149L207.647 432.518Z" fill="#0077BE"/>
<path d="M182.803 432.518L176.592 428.888V436.149L182.803 432.518Z" fill="#0077BE"/>
<path d="M157.959 432.518L151.748 428.888V436.149L157.959 432.518Z" fill="#0077BE"/>
<path d="M133.115 432.518L126.904 428.888V436.149L133.115 432.518Z" fill="#0077BE"/>
<path d="M108.272 432.518L102.061 428.888V436.149L108.272 432.518Z" fill="#0077BE"/>
<path d="M83.4278 432.518L77.2169 428.888V436.149L83.4278 432.518Z" fill="#0077BE"/>
<path d="M58.5841 432.518L52.3732 428.888V436.149L58.5841 432.518Z" fill="#0077BE"/>
<path d="M33.7404 432.518L27.5294 428.888V436.149L33.7404 432.518Z" fill="#0077BE"/>
<path d="M8.89655 432.518L2.68561 428.888L2.68561 436.149L8.89655 432.518Z" fill="#0077BE"/>
<path d="M530.615 407.364L524.404 403.734V410.995L530.615 407.364Z" fill="#0077BE"/>
<path d="M530.615 407.364L524.404 403.734V410.995L530.615 407.364Z" fill="#0077BE"/>
<path d="M505.772 407.364L499.561 403.734V410.995L505.772 407.364Z" fill="#0077BE"/>
<path d="M480.928 407.364L474.717 403.734V410.995L480.928 407.364Z" fill="#0077BE"/>
<path d="M456.084 407.364L449.873 403.734V410.995L456.084 407.364Z" fill="#0077BE"/>
<path d="M431.24 407.364L425.029 403.734V410.995L431.24 407.364Z" fill="#0077BE"/>
<path d="M406.397 407.364L400.186 403.734V410.995L406.397 407.364Z" fill="#0077BE"/>
<path d="M381.553 407.364L375.342 403.734V410.995L381.553 407.364Z" fill="#0077BE"/>
<path d="M356.709 407.364L350.498 403.734V410.995L356.709 407.364Z" fill="#0077BE"/>
<path d="M331.865 407.364L325.654 403.734V410.995L331.865 407.364Z" fill="#0077BE"/>
<path d="M307.022 407.364L300.811 403.734V410.995L307.022 407.364Z" fill="#0077BE"/>
<path d="M282.178 407.364L275.967 403.734V410.995L282.178 407.364Z" fill="#0077BE"/>
<path d="M257.334 407.364L251.123 403.734V410.995L257.334 407.364Z" fill="#0077BE"/>
<path d="M232.49 407.364L226.279 403.734V410.995L232.49 407.364Z" fill="#0077BE"/>
<path d="M207.647 407.364L201.436 403.734V410.995L207.647 407.364Z" fill="#0077BE"/>
<path d="M182.803 407.364L176.592 403.734V410.995L182.803 407.364Z" fill="#0077BE"/>
<path d="M157.959 407.364L151.748 403.734V410.995L157.959 407.364Z" fill="#0077BE"/>
<path d="M133.115 407.364L126.904 403.734V410.995L133.115 407.364Z" fill="#0077BE"/>
<path d="M108.272 407.364L102.061 403.734V410.995L108.272 407.364Z" fill="#0077BE"/>
<path d="M83.4278 407.364L77.2169 403.734V410.995L83.4278 407.364Z" fill="#0077BE"/>
<path d="M58.5841 407.364L52.3732 403.734V410.995L58.5841 407.364Z" fill="#0077BE"/>
<path d="M33.7404 407.364L27.5294 403.734V410.995L33.7404 407.364Z" fill="#0077BE"/>
<path d="M8.89655 407.364L2.68561 403.734L2.68561 410.995L8.89655 407.364Z" fill="#0077BE"/>
<path d="M530.615 382.211L524.404 378.58V385.841L530.615 382.211Z" fill="#0077BE"/>
<path d="M530.615 382.211L524.404 378.58V385.841L530.615 382.211Z" fill="#0077BE"/>
<path d="M505.772 382.211L499.561 378.58V385.841L505.772 382.211Z" fill="#0077BE"/>
<path d="M480.928 382.211L474.717 378.58V385.841L480.928 382.211Z" fill="#0077BE"/>
<path d="M456.084 382.211L449.873 378.58V385.841L456.084 382.211Z" fill="#0077BE"/>
<path d="M431.24 382.211L425.029 378.58V385.841L431.24 382.211Z" fill="#0077BE"/>
<path d="M406.397 382.211L400.186 378.58V385.841L406.397 382.211Z" fill="#0077BE"/>
<path d="M381.553 382.211L375.342 378.58V385.841L381.553 382.211Z" fill="#0077BE"/>
<path d="M356.709 382.211L350.498 378.58V385.841L356.709 382.211Z" fill="#0077BE"/>
<path d="M331.865 382.211L325.654 378.58V385.841L331.865 382.211Z" fill="#0077BE"/>
<path d="M307.022 382.211L300.811 378.58V385.841L307.022 382.211Z" fill="#0077BE"/>
<path d="M282.178 382.211L275.967 378.58V385.841L282.178 382.211Z" fill="#0077BE"/>
<path d="M257.334 382.211L251.123 378.58V385.841L257.334 382.211Z" fill="#0077BE"/>
<path d="M232.49 382.211L226.279 378.58V385.841L232.49 382.211Z" fill="#0077BE"/>
<path d="M207.647 382.211L201.436 378.58V385.841L207.647 382.211Z" fill="#0077BE"/>
<path d="M182.803 382.211L176.592 378.58V385.841L182.803 382.211Z" fill="#0077BE"/>
<path d="M157.959 382.211L151.748 378.58V385.841L157.959 382.211Z" fill="#0077BE"/>
<path d="M133.115 382.211L126.904 378.58V385.841L133.115 382.211Z" fill="#0077BE"/>
<path d="M108.272 382.211L102.061 378.58V385.841L108.272 382.211Z" fill="#0077BE"/>
<path d="M83.4278 382.211L77.2169 378.58V385.841L83.4278 382.211Z" fill="#0077BE"/>
<path d="M58.5841 382.211L52.3732 378.58V385.841L58.5841 382.211Z" fill="#0077BE"/>
<path d="M33.7404 382.211L27.5294 378.58V385.841L33.7404 382.211Z" fill="#0077BE"/>
<path d="M8.89655 382.211L2.68561 378.58L2.68561 385.841L8.89655 382.211Z" fill="#0077BE"/>
<path d="M530.615 357.057L524.404 353.426V360.687L530.615 357.057Z" fill="#0077BE"/>
<path d="M530.615 357.057L524.404 353.426V360.687L530.615 357.057Z" fill="#0077BE"/>
<path d="M505.772 357.057L499.561 353.426V360.687L505.772 357.057Z" fill="#0077BE"/>
<path d="M480.928 357.057L474.717 353.426V360.687L480.928 357.057Z" fill="#0077BE"/>
<path d="M456.084 357.057L449.873 353.426V360.687L456.084 357.057Z" fill="#0077BE"/>
<path d="M431.24 357.057L425.029 353.426V360.687L431.24 357.057Z" fill="#0077BE"/>
<path d="M406.397 357.057L400.186 353.426V360.687L406.397 357.057Z" fill="#0077BE"/>
<path d="M381.553 357.057L375.342 353.426V360.687L381.553 357.057Z" fill="#0077BE"/>
<path d="M356.709 357.057L350.498 353.426V360.687L356.709 357.057Z" fill="#0077BE"/>
<path d="M331.865 357.057L325.654 353.426V360.687L331.865 357.057Z" fill="#0077BE"/>
<path d="M307.022 357.057L300.811 353.426V360.687L307.022 357.057Z" fill="#0077BE"/>
<path d="M282.178 357.057L275.967 353.426V360.687L282.178 357.057Z" fill="#0077BE"/>
<path d="M257.334 357.057L251.123 353.426V360.687L257.334 357.057Z" fill="#0077BE"/>
<path d="M232.49 357.057L226.279 353.426V360.687L232.49 357.057Z" fill="#0077BE"/>
<path d="M207.647 357.057L201.436 353.426V360.687L207.647 357.057Z" fill="#0077BE"/>
<path d="M182.803 357.057L176.592 353.426V360.687L182.803 357.057Z" fill="#0077BE"/>
<path d="M157.959 357.057L151.748 353.426V360.687L157.959 357.057Z" fill="#0077BE"/>
<path d="M133.115 357.057L126.904 353.426V360.687L133.115 357.057Z" fill="#0077BE"/>
<path d="M108.272 357.057L102.061 353.426V360.687L108.272 357.057Z" fill="#0077BE"/>
<path d="M83.4278 357.057L77.2169 353.426V360.687L83.4278 357.057Z" fill="#0077BE"/>
<path d="M58.5841 357.057L52.3732 353.426V360.687L58.5841 357.057Z" fill="#0077BE"/>
<path d="M33.7404 357.057L27.5294 353.426V360.687L33.7404 357.057Z" fill="#0077BE"/>
<path d="M8.89655 357.057L2.68561 353.426L2.68561 360.687L8.89655 357.057Z" fill="#0077BE"/>
<path d="M530.615 331.903L524.404 328.272V335.534L530.615 331.903Z" fill="#0077BE"/>
<path d="M530.615 331.903L524.404 328.272V335.534L530.615 331.903Z" fill="#0077BE"/>
<path d="M505.772 331.903L499.561 328.272V335.534L505.772 331.903Z" fill="#0077BE"/>
<path d="M480.928 331.903L474.717 328.272V335.534L480.928 331.903Z" fill="#0077BE"/>
<path d="M456.084 331.903L449.873 328.272V335.534L456.084 331.903Z" fill="#0077BE"/>
<path d="M431.24 331.903L425.029 328.272V335.534L431.24 331.903Z" fill="#0077BE"/>
<path d="M406.397 331.903L400.186 328.272V335.534L406.397 331.903Z" fill="#0077BE"/>
<path d="M381.553 331.903L375.342 328.272V335.534L381.553 331.903Z" fill="#0077BE"/>
<path d="M356.709 331.903L350.498 328.272V335.534L356.709 331.903Z" fill="#0077BE"/>
<path d="M331.865 331.903L325.654 328.272V335.534L331.865 331.903Z" fill="#0077BE"/>
<path d="M307.022 331.903L300.811 328.272V335.534L307.022 331.903Z" fill="#0077BE"/>
<path d="M282.178 331.903L275.967 328.272V335.534L282.178 331.903Z" fill="#0077BE"/>
<path d="M257.334 331.903L251.123 328.272V335.534L257.334 331.903Z" fill="#0077BE"/>
<path d="M232.49 331.903L226.279 328.272V335.534L232.49 331.903Z" fill="#0077BE"/>
<path d="M207.647 331.903L201.436 328.272V335.534L207.647 331.903Z" fill="#0077BE"/>
<path d="M182.803 331.903L176.592 328.272V335.534L182.803 331.903Z" fill="#0077BE"/>
<path d="M157.959 331.903L151.748 328.272V335.534L157.959 331.903Z" fill="#0077BE"/>
<path d="M133.115 331.903L126.904 328.272V335.533L133.115 331.903Z" fill="#0077BE"/>
<path d="M108.272 331.903L102.061 328.272V335.533L108.272 331.903Z" fill="#0077BE"/>
<path d="M83.4278 331.903L77.2169 328.272V335.533L83.4278 331.903Z" fill="#0077BE"/>
<path d="M58.5841 331.903L52.3732 328.272V335.533L58.5841 331.903Z" fill="#0077BE"/>
<path d="M33.7404 331.903L27.5294 328.272V335.533L33.7404 331.903Z" fill="#0077BE"/>
<path d="M8.89655 331.903L2.68561 328.272L2.68561 335.533L8.89655 331.903Z" fill="#0077BE"/>
<path d="M530.615 306.749L524.404 303.118V310.38L530.615 306.749Z" fill="#0077BE"/>
<path d="M530.615 306.749L524.404 303.118V310.38L530.615 306.749Z" fill="#0077BE"/>
<path d="M505.772 306.749L499.561 303.118V310.38L505.772 306.749Z" fill="#0077BE"/>
<path d="M480.928 306.749L474.717 303.118V310.38L480.928 306.749Z" fill="#0077BE"/>
<path d="M456.084 306.749L449.873 303.118V310.38L456.084 306.749Z" fill="#0077BE"/>
<path d="M431.24 306.749L425.029 303.118V310.38L431.24 306.749Z" fill="#0077BE"/>
<path d="M406.397 306.749L400.186 303.118V310.38L406.397 306.749Z" fill="#0077BE"/>
<path d="M381.553 306.749L375.342 303.118V310.38L381.553 306.749Z" fill="#0077BE"/>
<path d="M356.709 306.749L350.498 303.118V310.38L356.709 306.749Z" fill="#0077BE"/>
<path d="M331.865 306.749L325.654 303.118V310.38L331.865 306.749Z" fill="#0077BE"/>
<path d="M307.022 306.749L300.811 303.118V310.38L307.022 306.749Z" fill="#0077BE"/>
<path d="M282.178 306.749L275.967 303.118V310.38L282.178 306.749Z" fill="#0077BE"/>
<path d="M257.334 306.749L251.123 303.118V310.38L257.334 306.749Z" fill="#0077BE"/>
<path d="M232.49 306.749L226.279 303.118V310.38L232.49 306.749Z" fill="#0077BE"/>
<path d="M207.647 306.749L201.436 303.118V310.38L207.647 306.749Z" fill="#0077BE"/>
<path d="M182.803 306.749L176.592 303.118V310.38L182.803 306.749Z" fill="#0077BE"/>
<path d="M157.959 306.749L151.748 303.118V310.38L157.959 306.749Z" fill="#0077BE"/>
<path d="M133.115 306.749L126.904 303.118V310.38L133.115 306.749Z" fill="#0077BE"/>
<path d="M108.272 306.749L102.061 303.118V310.38L108.272 306.749Z" fill="#0077BE"/>
<path d="M83.4278 306.749L77.2169 303.118V310.38L83.4278 306.749Z" fill="#0077BE"/>
<path d="M58.5841 306.749L52.3732 303.118V310.38L58.5841 306.749Z" fill="#0077BE"/>
<path d="M33.7404 306.749L27.5294 303.118V310.38L33.7404 306.749Z" fill="#0077BE"/>
<path d="M8.89655 306.749L2.68561 303.118L2.68561 310.38L8.89655 306.749Z" fill="#0077BE"/>
<path d="M530.615 281.595L524.404 277.965V285.226L530.615 281.595Z" fill="#0077BE"/>
<path d="M530.615 281.595L524.404 277.965V285.226L530.615 281.595Z" fill="#0077BE"/>
<path d="M505.772 281.595L499.561 277.965V285.226L505.772 281.595Z" fill="#0077BE"/>
<path d="M480.928 281.595L474.717 277.965V285.226L480.928 281.595Z" fill="#0077BE"/>
<path d="M456.084 281.595L449.873 277.965V285.226L456.084 281.595Z" fill="#0077BE"/>
<path d="M431.24 281.595L425.029 277.965V285.226L431.24 281.595Z" fill="#0077BE"/>
<path d="M406.397 281.595L400.186 277.965V285.226L406.397 281.595Z" fill="#0077BE"/>
<path d="M381.553 281.595L375.342 277.965V285.226L381.553 281.595Z" fill="#0077BE"/>
<path d="M356.709 281.595L350.498 277.965V285.226L356.709 281.595Z" fill="#0077BE"/>
<path d="M331.865 281.595L325.654 277.965V285.226L331.865 281.595Z" fill="#0077BE"/>
<path d="M307.022 281.595L300.811 277.965V285.226L307.022 281.595Z" fill="#0077BE"/>
<path d="M282.178 281.595L275.967 277.965V285.226L282.178 281.595Z" fill="#0077BE"/>
<path d="M257.334 281.595L251.123 277.965V285.226L257.334 281.595Z" fill="#0077BE"/>
<path d="M232.49 281.595L226.279 277.965V285.226L232.49 281.595Z" fill="#0077BE"/>
<path d="M207.647 281.595L201.436 277.965V285.226L207.647 281.595Z" fill="#0077BE"/>
<path d="M182.803 281.595L176.592 277.965V285.226L182.803 281.595Z" fill="#0077BE"/>
<path d="M157.959 281.595L151.748 277.965V285.226L157.959 281.595Z" fill="#0077BE"/>
<path d="M133.115 281.595L126.904 277.965V285.226L133.115 281.595Z" fill="#0077BE"/>
<path d="M108.272 281.595L102.061 277.965V285.226L108.272 281.595Z" fill="#0077BE"/>
<path d="M83.4278 281.595L77.2169 277.965V285.226L83.4278 281.595Z" fill="#0077BE"/>
<path d="M58.5841 281.595L52.3732 277.965V285.226L58.5841 281.595Z" fill="#0077BE"/>
<path d="M33.7404 281.595L27.5294 277.965V285.226L33.7404 281.595Z" fill="#0077BE"/>
<path d="M8.89655 281.595L2.68561 277.965L2.68561 285.226L8.89655 281.595Z" fill="#0077BE"/>
<path d="M530.615 256.441L524.404 252.811V260.072L530.615 256.441Z" fill="#0077BE"/>
<path d="M530.615 256.441L524.404 252.811V260.072L530.615 256.441Z" fill="#0077BE"/>
<path d="M505.772 256.441L499.561 252.811V260.072L505.772 256.441Z" fill="#0077BE"/>
<path d="M480.928 256.441L474.717 252.811V260.072L480.928 256.441Z" fill="#0077BE"/>
<path d="M456.084 256.441L449.873 252.811V260.072L456.084 256.441Z" fill="#0077BE"/>
<path d="M431.24 256.441L425.029 252.811V260.072L431.24 256.441Z" fill="#0077BE"/>
<path d="M406.397 256.441L400.186 252.811V260.072L406.397 256.441Z" fill="#0077BE"/>
<path d="M381.553 256.441L375.342 252.811V260.072L381.553 256.441Z" fill="#0077BE"/>
<path d="M356.709 256.441L350.498 252.811V260.072L356.709 256.441Z" fill="#0077BE"/>
<path d="M331.865 256.441L325.654 252.811V260.072L331.865 256.441Z" fill="#0077BE"/>
<path d="M307.022 256.441L300.811 252.811V260.072L307.022 256.441Z" fill="#0077BE"/>
<path d="M282.178 256.441L275.967 252.811V260.072L282.178 256.441Z" fill="#0077BE"/>
<path d="M257.334 256.441L251.123 252.811V260.072L257.334 256.441Z" fill="#0077BE"/>
<path d="M232.49 256.441L226.279 252.811V260.072L232.49 256.441Z" fill="#0077BE"/>
<path d="M207.647 256.441L201.436 252.811V260.072L207.647 256.441Z" fill="#0077BE"/>
<path d="M182.803 256.441L176.592 252.811V260.072L182.803 256.441Z" fill="#0077BE"/>
<path d="M157.959 256.441L151.748 252.811V260.072L157.959 256.441Z" fill="#0077BE"/>
<path d="M133.115 256.441L126.904 252.811V260.072L133.115 256.441Z" fill="#0077BE"/>
<path d="M108.272 256.441L102.061 252.811V260.072L108.272 256.441Z" fill="#0077BE"/>
<path d="M83.4278 256.441L77.2169 252.811V260.072L83.4278 256.441Z" fill="#0077BE"/>
<path d="M58.5841 256.441L52.3732 252.811V260.072L58.5841 256.441Z" fill="#0077BE"/>
<path d="M33.7404 256.441L27.5294 252.811V260.072L33.7404 256.441Z" fill="#0077BE"/>
<path d="M8.89655 256.441L2.68561 252.811L2.68561 260.072L8.89655 256.441Z" fill="#0077BE"/>
<path d="M530.615 231.287L524.404 227.657V234.918L530.615 231.287Z" fill="#0077BE"/>
<path d="M530.615 231.287L524.404 227.657V234.918L530.615 231.287Z" fill="#0077BE"/>
<path d="M505.772 231.287L499.561 227.657V234.918L505.772 231.287Z" fill="#0077BE"/>
<path d="M480.928 231.287L474.717 227.657V234.918L480.928 231.287Z" fill="#0077BE"/>
<path d="M456.084 231.287L449.873 227.657V234.918L456.084 231.287Z" fill="#0077BE"/>
<path d="M431.24 231.287L425.029 227.657V234.918L431.24 231.287Z" fill="#0077BE"/>
<path d="M406.397 231.287L400.186 227.657V234.918L406.397 231.287Z" fill="#0077BE"/>
<path d="M381.553 231.287L375.342 227.657V234.918L381.553 231.287Z" fill="#0077BE"/>
<path d="M356.709 231.287L350.498 227.657V234.918L356.709 231.287Z" fill="#0077BE"/>
<path d="M331.865 231.287L325.654 227.657V234.918L331.865 231.287Z" fill="#0077BE"/>
<path d="M307.022 231.287L300.811 227.657V234.918L307.022 231.287Z" fill="#0077BE"/>
<path d="M282.178 231.287L275.967 227.657V234.918L282.178 231.287Z" fill="#0077BE"/>
<path d="M257.334 231.287L251.123 227.657V234.918L257.334 231.287Z" fill="#0077BE"/>
<path d="M232.49 231.287L226.279 227.657V234.918L232.49 231.287Z" fill="#0077BE"/>
<path d="M207.647 231.287L201.436 227.657V234.918L207.647 231.287Z" fill="#0077BE"/>
<path d="M182.803 231.287L176.592 227.657V234.918L182.803 231.287Z" fill="#0077BE"/>
<path d="M157.959 231.287L151.748 227.657V234.918L157.959 231.287Z" fill="#0077BE"/>
<path d="M133.115 231.287L126.904 227.657V234.918L133.115 231.287Z" fill="#0077BE"/>
<path d="M108.272 231.287L102.061 227.657V234.918L108.272 231.287Z" fill="#0077BE"/>
<path d="M83.4278 231.287L77.2169 227.657V234.918L83.4278 231.287Z" fill="#0077BE"/>
<path d="M58.5841 231.287L52.3732 227.657V234.918L58.5841 231.287Z" fill="#0077BE"/>
<path d="M33.7404 231.287L27.5294 227.657V234.918L33.7404 231.287Z" fill="#0077BE"/>
<path d="M8.89655 231.287L2.68561 227.657L2.68561 234.918L8.89655 231.287Z" fill="#0077BE"/>
<path d="M530.615 206.134L524.404 202.503V209.764L530.615 206.134Z" fill="#0077BE"/>
<path d="M530.615 206.134L524.404 202.503V209.764L530.615 206.134Z" fill="#0077BE"/>
<path d="M505.772 206.134L499.561 202.503V209.764L505.772 206.134Z" fill="#0077BE"/>
<path d="M480.928 206.134L474.717 202.503V209.764L480.928 206.134Z" fill="#0077BE"/>
<path d="M456.084 206.134L449.873 202.503V209.764L456.084 206.134Z" fill="#0077BE"/>
<path d="M431.24 206.134L425.029 202.503V209.764L431.24 206.134Z" fill="#0077BE"/>
<path d="M406.397 206.134L400.186 202.503V209.764L406.397 206.134Z" fill="#0077BE"/>
<path d="M381.553 206.134L375.342 202.503V209.764L381.553 206.134Z" fill="#0077BE"/>
<path d="M356.709 206.134L350.498 202.503V209.764L356.709 206.134Z" fill="#0077BE"/>
<path d="M331.865 206.134L325.654 202.503V209.764L331.865 206.134Z" fill="#0077BE"/>
<path d="M307.022 206.134L300.811 202.503V209.764L307.022 206.134Z" fill="#0077BE"/>
<path d="M282.178 206.134L275.967 202.503V209.764L282.178 206.134Z" fill="#0077BE"/>
<path d="M257.334 206.134L251.123 202.503V209.764L257.334 206.134Z" fill="#0077BE"/>
<path d="M232.49 206.134L226.279 202.503V209.764L232.49 206.134Z" fill="#0077BE"/>
<path d="M207.647 206.134L201.436 202.503V209.764L207.647 206.134Z" fill="#0077BE"/>
<path d="M182.803 206.134L176.592 202.503V209.764L182.803 206.134Z" fill="#0077BE"/>
<path d="M157.959 206.134L151.748 202.503V209.764L157.959 206.134Z" fill="#0077BE"/>
<path d="M133.115 206.134L126.904 202.503V209.764L133.115 206.134Z" fill="#0077BE"/>
<path d="M108.272 206.134L102.061 202.503V209.764L108.272 206.134Z" fill="#0077BE"/>
<path d="M83.4278 206.134L77.2169 202.503V209.764L83.4278 206.134Z" fill="#0077BE"/>
<path d="M58.5841 206.134L52.3732 202.503V209.764L58.5841 206.134Z" fill="#0077BE"/>
<path d="M33.7404 206.134L27.5294 202.503V209.764L33.7404 206.134Z" fill="#0077BE"/>
<path d="M8.89655 206.134L2.68561 202.503L2.68561 209.764L8.89655 206.134Z" fill="#0077BE"/>
<path d="M530.615 180.98L524.404 177.349V184.61L530.615 180.98Z" fill="#0077BE"/>
<path d="M530.615 180.98L524.404 177.349V184.61L530.615 180.98Z" fill="#0077BE"/>
<path d="M505.772 180.98L499.561 177.349V184.61L505.772 180.98Z" fill="#0077BE"/>
<path d="M480.928 180.98L474.717 177.349V184.61L480.928 180.98Z" fill="#0077BE"/>
<path d="M456.084 180.98L449.873 177.349V184.61L456.084 180.98Z" fill="#0077BE"/>
<path d="M431.24 180.98L425.029 177.349V184.61L431.24 180.98Z" fill="#0077BE"/>
<path d="M406.397 180.98L400.186 177.349V184.61L406.397 180.98Z" fill="#0077BE"/>
<path d="M381.553 180.98L375.342 177.349V184.61L381.553 180.98Z" fill="#0077BE"/>
<path d="M356.709 180.98L350.498 177.349V184.61L356.709 180.98Z" fill="#0077BE"/>
<path d="M331.865 180.98L325.654 177.349V184.61L331.865 180.98Z" fill="#0077BE"/>
<path d="M307.022 180.98L300.811 177.349V184.61L307.022 180.98Z" fill="#0077BE"/>
<path d="M282.178 180.98L275.967 177.349V184.61L282.178 180.98Z" fill="#0077BE"/>
<path d="M257.334 180.98L251.123 177.349V184.61L257.334 180.98Z" fill="#0077BE"/>
<path d="M232.49 180.98L226.279 177.349V184.61L232.49 180.98Z" fill="#0077BE"/>
<path d="M207.647 180.98L201.436 177.349V184.61L207.647 180.98Z" fill="#0077BE"/>
<path d="M182.803 180.98L176.592 177.349V184.61L182.803 180.98Z" fill="#0077BE"/>
<path d="M157.959 180.98L151.748 177.349V184.61L157.959 180.98Z" fill="#0077BE"/>
<path d="M133.115 180.98L126.904 177.349V184.61L133.115 180.98Z" fill="#0077BE"/>
<path d="M108.272 180.98L102.061 177.349V184.61L108.272 180.98Z" fill="#0077BE"/>
<path d="M83.4278 180.98L77.2169 177.349V184.61L83.4278 180.98Z" fill="#0077BE"/>
<path d="M58.5841 180.98L52.3732 177.349V184.61L58.5841 180.98Z" fill="#0077BE"/>
<path d="M33.7404 180.98L27.5294 177.349V184.61L33.7404 180.98Z" fill="#0077BE"/>
<path d="M8.89655 180.98L2.68561 177.349L2.68561 184.61L8.89655 180.98Z" fill="#0077BE"/>
<path d="M530.615 155.826L524.404 152.195V159.457L530.615 155.826Z" fill="#0077BE"/>
<path d="M530.615 155.826L524.404 152.195V159.457L530.615 155.826Z" fill="#0077BE"/>
<path d="M505.772 155.826L499.561 152.195V159.457L505.772 155.826Z" fill="#0077BE"/>
<path d="M480.928 155.826L474.717 152.195V159.457L480.928 155.826Z" fill="#0077BE"/>
<path d="M456.084 155.826L449.873 152.195V159.457L456.084 155.826Z" fill="#0077BE"/>
<path d="M431.24 155.826L425.029 152.195V159.457L431.24 155.826Z" fill="#0077BE"/>
<path d="M406.397 155.826L400.186 152.195V159.457L406.397 155.826Z" fill="#0077BE"/>
<path d="M381.553 155.826L375.342 152.195V159.457L381.553 155.826Z" fill="#0077BE"/>
<path d="M356.709 155.826L350.498 152.195V159.457L356.709 155.826Z" fill="#0077BE"/>
<path d="M331.865 155.826L325.654 152.195V159.457L331.865 155.826Z" fill="#0077BE"/>
<path d="M307.022 155.826L300.811 152.195V159.457L307.022 155.826Z" fill="#0077BE"/>
<path d="M282.178 155.826L275.967 152.195V159.457L282.178 155.826Z" fill="#0077BE"/>
<path d="M257.334 155.826L251.123 152.195V159.457L257.334 155.826Z" fill="#0077BE"/>
<path d="M232.49 155.826L226.279 152.195V159.457L232.49 155.826Z" fill="#0077BE"/>
<path d="M207.647 155.826L201.436 152.195V159.457L207.647 155.826Z" fill="#0077BE"/>
<path d="M182.803 155.826L176.592 152.195V159.457L182.803 155.826Z" fill="#0077BE"/>
<path d="M157.959 155.826L151.748 152.195V159.457L157.959 155.826Z" fill="#0077BE"/>
<path d="M133.115 155.826L126.904 152.195V159.457L133.115 155.826Z" fill="#0077BE"/>
<path d="M108.272 155.826L102.061 152.195V159.457L108.272 155.826Z" fill="#0077BE"/>
<path d="M83.4278 155.826L77.2169 152.195V159.457L83.4278 155.826Z" fill="#0077BE"/>
<path d="M58.5841 155.826L52.3732 152.195V159.457L58.5841 155.826Z" fill="#0077BE"/>
<path d="M33.7404 155.826L27.5294 152.195V159.457L33.7404 155.826Z" fill="#0077BE"/>
<path d="M8.89655 155.826L2.68561 152.195L2.68561 159.457L8.89655 155.826Z" fill="#0077BE"/>
<path d="M530.615 130.672L524.404 127.041V134.303L530.615 130.672Z" fill="#0077BE"/>
<path d="M530.615 130.672L524.404 127.041V134.303L530.615 130.672Z" fill="#0077BE"/>
<path d="M505.772 130.672L499.561 127.041V134.303L505.772 130.672Z" fill="#0077BE"/>
<path d="M480.928 130.672L474.717 127.041V134.303L480.928 130.672Z" fill="#0077BE"/>
<path d="M456.084 130.672L449.873 127.041V134.303L456.084 130.672Z" fill="#0077BE"/>
<path d="M431.24 130.672L425.029 127.041V134.303L431.24 130.672Z" fill="#0077BE"/>
<path d="M406.397 130.672L400.186 127.041V134.303L406.397 130.672Z" fill="#0077BE"/>
<path d="M381.553 130.672L375.342 127.041V134.303L381.553 130.672Z" fill="#0077BE"/>
<path d="M356.709 130.672L350.498 127.041V134.303L356.709 130.672Z" fill="#0077BE"/>
<path d="M331.865 130.672L325.654 127.041V134.303L331.865 130.672Z" fill="#0077BE"/>
<path d="M307.022 130.672L300.811 127.041V134.303L307.022 130.672Z" fill="#0077BE"/>
<path d="M282.178 130.672L275.967 127.041V134.303L282.178 130.672Z" fill="#0077BE"/>
<path d="M257.334 130.672L251.123 127.041V134.303L257.334 130.672Z" fill="#0077BE"/>
<path d="M232.49 130.672L226.279 127.041V134.303L232.49 130.672Z" fill="#0077BE"/>
<path d="M207.647 130.672L201.436 127.041V134.303L207.647 130.672Z" fill="#0077BE"/>
<path d="M182.803 130.672L176.592 127.041V134.303L182.803 130.672Z" fill="#0077BE"/>
<path d="M157.959 130.672L151.748 127.041V134.303L157.959 130.672Z" fill="#0077BE"/>
<path d="M133.115 130.672L126.904 127.041V134.303L133.115 130.672Z" fill="#0077BE"/>
<path d="M108.272 130.672L102.061 127.041V134.303L108.272 130.672Z" fill="#0077BE"/>
<path d="M83.4278 130.672L77.2169 127.041V134.303L83.4278 130.672Z" fill="#0077BE"/>
<path d="M58.5841 130.672L52.3732 127.041V134.303L58.5841 130.672Z" fill="#0077BE"/>
<path d="M33.7404 130.672L27.5294 127.041V134.303L33.7404 130.672Z" fill="#0077BE"/>
<path d="M8.89655 130.672L2.68561 127.041L2.68561 134.303L8.89655 130.672Z" fill="#0077BE"/>
<path d="M530.615 105.518L524.404 101.888V109.149L530.615 105.518Z" fill="#0077BE"/>
<path d="M530.615 105.518L524.404 101.888V109.149L530.615 105.518Z" fill="#0077BE"/>
<path d="M505.772 105.518L499.561 101.888V109.149L505.772 105.518Z" fill="#0077BE"/>
<path d="M480.928 105.518L474.717 101.888V109.149L480.928 105.518Z" fill="#0077BE"/>
<path d="M456.084 105.518L449.873 101.888V109.149L456.084 105.518Z" fill="#0077BE"/>
<path d="M431.24 105.518L425.029 101.888V109.149L431.24 105.518Z" fill="#0077BE"/>
<path d="M406.397 105.518L400.186 101.888V109.149L406.397 105.518Z" fill="#0077BE"/>
<path d="M381.553 105.518L375.342 101.888V109.149L381.553 105.518Z" fill="#0077BE"/>
<path d="M356.709 105.518L350.498 101.888V109.149L356.709 105.518Z" fill="#0077BE"/>
<path d="M331.865 105.518L325.654 101.888V109.149L331.865 105.518Z" fill="#0077BE"/>
<path d="M307.022 105.518L300.811 101.888V109.149L307.022 105.518Z" fill="#0077BE"/>
<path d="M282.178 105.518L275.967 101.888V109.149L282.178 105.518Z" fill="#0077BE"/>
<path d="M257.334 105.518L251.123 101.888V109.149L257.334 105.518Z" fill="#0077BE"/>
<path d="M232.49 105.518L226.279 101.888V109.149L232.49 105.518Z" fill="#0077BE"/>
<path d="M207.647 105.518L201.436 101.888V109.149L207.647 105.518Z" fill="#0077BE"/>
<path d="M182.803 105.518L176.592 101.888V109.149L182.803 105.518Z" fill="#0077BE"/>
<path d="M157.959 105.518L151.748 101.888V109.149L157.959 105.518Z" fill="#0077BE"/>
<path d="M133.115 105.518L126.904 101.888V109.149L133.115 105.518Z" fill="#0077BE"/>
<path d="M108.272 105.518L102.061 101.888V109.149L108.272 105.518Z" fill="#0077BE"/>
<path d="M83.4278 105.518L77.2169 101.888V109.149L83.4278 105.518Z" fill="#0077BE"/>
<path d="M58.5841 105.518L52.3732 101.888V109.149L58.5841 105.518Z" fill="#0077BE"/>
<path d="M33.7404 105.518L27.5294 101.888V109.149L33.7404 105.518Z" fill="#0077BE"/>
<path d="M8.89655 105.518L2.68561 101.888L2.68561 109.149L8.89655 105.518Z" fill="#0077BE"/>
<path d="M530.615 80.3644L524.404 76.7338V83.9951L530.615 80.3644Z" fill="#0077BE"/>
<path d="M530.615 80.3644L524.404 76.7338V83.9951L530.615 80.3644Z" fill="#0077BE"/>
<path d="M505.772 80.3644L499.561 76.7338V83.9951L505.772 80.3644Z" fill="#0077BE"/>
<path d="M480.928 80.3644L474.717 76.7338V83.9951L480.928 80.3644Z" fill="#0077BE"/>
<path d="M456.084 80.3644L449.873 76.7338V83.9951L456.084 80.3644Z" fill="#0077BE"/>
<path d="M431.24 80.3644L425.029 76.7338V83.9951L431.24 80.3644Z" fill="#0077BE"/>
<path d="M406.397 80.3644L400.186 76.7338V83.9951L406.397 80.3644Z" fill="#0077BE"/>
<path d="M381.553 80.3644L375.342 76.7338V83.9951L381.553 80.3644Z" fill="#0077BE"/>
<path d="M356.709 80.3644L350.498 76.7338V83.9951L356.709 80.3644Z" fill="#0077BE"/>
<path d="M331.865 80.3644L325.654 76.7338V83.9951L331.865 80.3644Z" fill="#0077BE"/>
<path d="M307.022 80.3644L300.811 76.7338V83.9951L307.022 80.3644Z" fill="#0077BE"/>
<path d="M282.178 80.3644L275.967 76.7338V83.9951L282.178 80.3644Z" fill="#0077BE"/>
<path d="M257.334 80.3644L251.123 76.7338V83.9951L257.334 80.3644Z" fill="#0077BE"/>
<path d="M232.49 80.3644L226.279 76.7338V83.9951L232.49 80.3644Z" fill="#0077BE"/>
<path d="M207.647 80.3644L201.436 76.7338V83.9951L207.647 80.3644Z" fill="#0077BE"/>
<path d="M182.803 80.3644L176.592 76.7338V83.9951L182.803 80.3644Z" fill="#0077BE"/>
<path d="M157.959 80.3644L151.748 76.7338V83.9951L157.959 80.3644Z" fill="#0077BE"/>
<path d="M133.115 80.3644L126.904 76.7338V83.9951L133.115 80.3644Z" fill="#0077BE"/>
<path d="M108.272 80.3644L102.061 76.7338V83.9951L108.272 80.3644Z" fill="#0077BE"/>
<path d="M83.4278 80.3644L77.2169 76.7338V83.9951L83.4278 80.3644Z" fill="#0077BE"/>
<path d="M58.5841 80.3644L52.3732 76.7338V83.9951L58.5841 80.3644Z" fill="#0077BE"/>
<path d="M33.7404 80.3644L27.5294 76.7338V83.9951L33.7404 80.3644Z" fill="#0077BE"/>
<path d="M8.89655 80.3644L2.68561 76.7338L2.68561 83.9951L8.89655 80.3644Z" fill="#0077BE"/>
<path d="M530.615 55.2106L524.404 51.5799V58.8412L530.615 55.2106Z" fill="#0077BE"/>
<path d="M530.615 55.2106L524.404 51.5799V58.8412L530.615 55.2106Z" fill="#0077BE"/>
<path d="M505.772 55.2106L499.561 51.5799V58.8412L505.772 55.2106Z" fill="#0077BE"/>
<path d="M480.928 55.2106L474.717 51.5799V58.8412L480.928 55.2106Z" fill="#0077BE"/>
<path d="M456.084 55.2106L449.873 51.5799V58.8412L456.084 55.2106Z" fill="#0077BE"/>
<path d="M431.24 55.2106L425.029 51.5799V58.8412L431.24 55.2106Z" fill="#0077BE"/>
<path d="M406.397 55.2106L400.186 51.5799V58.8412L406.397 55.2106Z" fill="#0077BE"/>
<path d="M381.553 55.2106L375.342 51.5799V58.8412L381.553 55.2106Z" fill="#0077BE"/>
<path d="M356.709 55.2106L350.498 51.5799V58.8412L356.709 55.2106Z" fill="#0077BE"/>
<path d="M331.865 55.2106L325.654 51.5799V58.8412L331.865 55.2106Z" fill="#0077BE"/>
<path d="M307.022 55.2106L300.811 51.5799V58.8412L307.022 55.2106Z" fill="#0077BE"/>
<path d="M282.178 55.2106L275.967 51.5799V58.8412L282.178 55.2106Z" fill="#0077BE"/>
<path d="M257.334 55.2106L251.123 51.5799V58.8412L257.334 55.2106Z" fill="#0077BE"/>
<path d="M232.49 55.2106L226.279 51.5799V58.8412L232.49 55.2106Z" fill="#0077BE"/>
<path d="M207.647 55.2106L201.436 51.5799V58.8412L207.647 55.2106Z" fill="#0077BE"/>
<path d="M182.803 55.2106L176.592 51.5799V58.8412L182.803 55.2106Z" fill="#0077BE"/>
<path d="M157.959 55.2106L151.748 51.5799V58.8412L157.959 55.2106Z" fill="#0077BE"/>
<path d="M133.115 55.2106L126.904 51.5799V58.8412L133.115 55.2106Z" fill="#0077BE"/>
<path d="M108.272 55.2106L102.061 51.5799V58.8412L108.272 55.2106Z" fill="#0077BE"/>
<path d="M83.4278 55.2106L77.2169 51.5799V58.8412L83.4278 55.2106Z" fill="#0077BE"/>
<path d="M58.5841 55.2106L52.3732 51.5799V58.8412L58.5841 55.2106Z" fill="#0077BE"/>
<path d="M33.7404 55.2106L27.5294 51.5799V58.8412L33.7404 55.2106Z" fill="#0077BE"/>
<path d="M8.89655 55.2106L2.68561 51.5799L2.68561 58.8412L8.89655 55.2106Z" fill="#0077BE"/>
<path d="M530.615 30.0567L524.404 26.4261V33.6874L530.615 30.0567Z" fill="#0077BE"/>
<path d="M530.615 30.0567L524.404 26.4261V33.6874L530.615 30.0567Z" fill="#0077BE"/>
<path d="M505.772 30.0567L499.561 26.4261V33.6874L505.772 30.0567Z" fill="#0077BE"/>
<path d="M480.928 30.0567L474.717 26.4261V33.6874L480.928 30.0567Z" fill="#0077BE"/>
<path d="M456.084 30.0567L449.873 26.4261V33.6874L456.084 30.0567Z" fill="#0077BE"/>
<path d="M431.24 30.0567L425.029 26.4261V33.6874L431.24 30.0567Z" fill="#0077BE"/>
<path d="M406.397 30.0567L400.186 26.4261V33.6874L406.397 30.0567Z" fill="#0077BE"/>
<path d="M381.553 30.0567L375.342 26.4261V33.6874L381.553 30.0567Z" fill="#0077BE"/>
<path d="M356.709 30.0567L350.498 26.4261V33.6874L356.709 30.0567Z" fill="#0077BE"/>
<path d="M331.865 30.0567L325.654 26.4261V33.6874L331.865 30.0567Z" fill="#0077BE"/>
<path d="M307.022 30.0567L300.811 26.4261V33.6874L307.022 30.0567Z" fill="#0077BE"/>
<path d="M282.178 30.0567L275.967 26.4261V33.6874L282.178 30.0567Z" fill="#0077BE"/>
<path d="M257.334 30.0567L251.123 26.4261V33.6874L257.334 30.0567Z" fill="#0077BE"/>
<path d="M232.49 30.0567L226.279 26.4261V33.6874L232.49 30.0567Z" fill="#0077BE"/>
<path d="M207.647 30.0567L201.436 26.4261V33.6874L207.647 30.0567Z" fill="#0077BE"/>
<path d="M182.803 30.0567L176.592 26.4261V33.6874L182.803 30.0567Z" fill="#0077BE"/>
<path d="M157.959 30.0567L151.748 26.4261V33.6874L157.959 30.0567Z" fill="#0077BE"/>
<path d="M133.115 30.0567L126.904 26.4261V33.6874L133.115 30.0567Z" fill="#0077BE"/>
<path d="M108.272 30.0567L102.061 26.4261V33.6874L108.272 30.0567Z" fill="#0077BE"/>
<path d="M83.4278 30.0567L77.2169 26.4261V33.6874L83.4278 30.0567Z" fill="#0077BE"/>
<path d="M58.5841 30.0567L52.3732 26.4261V33.6874L58.5841 30.0567Z" fill="#0077BE"/>
<path d="M33.7404 30.0567L27.5294 26.4261V33.6874L33.7404 30.0567Z" fill="#0077BE"/>
<path d="M8.89655 30.0567L2.68561 26.4261L2.68561 33.6874L8.89655 30.0567Z" fill="#0077BE"/>
<path d="M530.615 4.90288L524.404 1.27223V8.53352L530.615 4.90288Z" fill="#0077BE"/>
<path d="M530.615 4.90288L524.404 1.27223V8.53352L530.615 4.90288Z" fill="#0077BE"/>
<path d="M505.772 4.90288L499.561 1.27223V8.53352L505.772 4.90288Z" fill="#0077BE"/>
<path d="M480.928 4.90288L474.717 1.27223V8.53352L480.928 4.90288Z" fill="#0077BE"/>
<path d="M456.084 4.90288L449.873 1.27223V8.53352L456.084 4.90288Z" fill="#0077BE"/>
<path d="M431.24 4.90288L425.029 1.27223V8.53352L431.24 4.90288Z" fill="#0077BE"/>
<path d="M406.397 4.90288L400.186 1.27223V8.53352L406.397 4.90288Z" fill="#0077BE"/>
<path d="M381.553 4.90288L375.342 1.27223V8.53352L381.553 4.90288Z" fill="#0077BE"/>
<path d="M356.709 4.90288L350.498 1.27223V8.53352L356.709 4.90288Z" fill="#0077BE"/>
<path d="M331.865 4.90288L325.654 1.27223V8.53352L331.865 4.90288Z" fill="#0077BE"/>
<path d="M307.022 4.90288L300.811 1.27223V8.53352L307.022 4.90288Z" fill="#0077BE"/>
<path d="M282.178 4.90288L275.967 1.27223V8.53352L282.178 4.90288Z" fill="#0077BE"/>
<path d="M257.334 4.90288L251.123 1.27223V8.53352L257.334 4.90288Z" fill="#0077BE"/>
<path d="M232.49 4.90288L226.279 1.27223V8.53352L232.49 4.90288Z" fill="#0077BE"/>
<path d="M207.647 4.90288L201.436 1.27223V8.53352L207.647 4.90288Z" fill="#0077BE"/>
<path d="M182.803 4.90288L176.592 1.27223V8.53352L182.803 4.90288Z" fill="#0077BE"/>
<path d="M157.959 4.90288L151.748 1.27223V8.53352L157.959 4.90288Z" fill="#0077BE"/>
<path d="M133.115 4.90288L126.904 1.27223V8.53352L133.115 4.90288Z" fill="#0077BE"/>
<path d="M108.272 4.90288L102.061 1.27223V8.53352L108.272 4.90288Z" fill="#0077BE"/>
<path d="M83.4278 4.90288L77.2169 1.27223V8.53352L83.4278 4.90288Z" fill="#0077BE"/>
<path d="M58.5841 4.90288L52.3732 1.27223V8.53352L58.5841 4.90288Z" fill="#0077BE"/>
<path d="M33.7404 4.90288L27.5294 1.27223V8.53352L33.7404 4.90288Z" fill="#0077BE"/>
<path d="M8.89655 4.90288L2.68561 1.27223L2.68561 8.53352L8.89655 4.90288Z" fill="#0077BE"/>
</svg>
