<svg width="216" height="85" viewBox="0 0 216 85" fill="none" xmlns="http://www.w3.org/2000/svg">
<path fill-rule="evenodd" clip-rule="evenodd" d="M91.6296 36.3719C81.4938 36.7776 71.477 37.2764 61.709 37.8218C47.8812 38.5933 34.0589 39.3914 20.3198 40.6551C15.9951 41.0541 11.6032 41.3068 7.30552 41.8056C4.60769 42.1182 1.03043 42.5638 0.560955 42.6569C0.315403 42.7101 0.208277 42.79 0.173661 42.8166C-0.0697278 43.0028 -0.0253183 43.1823 0.112061 43.322C0.16723 43.3818 0.306734 43.5282 0.693993 43.5482C26.5928 44.9116 53.0757 42.2512 79.0058 41.9719C123.973 41.4931 170.304 43.3952 214.914 47.5453C215.304 47.5786 215.682 47.4123 215.736 47.1662C215.801 46.9268 215.52 46.694 215.131 46.6607C170.444 42.5039 124.038 40.5951 78.9842 41.0806C54.8183 41.34 30.1755 43.6745 5.97607 42.8764C6.53208 42.8099 7.07731 42.7434 7.5749 42.6835C11.8553 42.1847 16.2287 41.9386 20.5362 41.5396C34.246 40.2759 48.0403 39.4778 61.8496 38.713C78.9842 37.7553 96.8652 36.9305 114.887 36.5448C121.334 36.6046 127.759 36.6645 134.185 36.7377C148.085 36.8973 162.05 37.3629 175.918 37.9881C180.094 38.1809 184.269 38.3804 188.444 38.5534C189.829 38.6132 193.399 38.7861 193.896 38.7728C194.513 38.7595 194.632 38.4403 194.643 38.3871C194.675 38.2674 194.654 38.1011 194.351 37.9614C194.318 37.9415 194.123 37.8749 193.691 37.835C168.476 35.4806 141.551 35.0883 114.908 35.6536C86.8051 35.4075 58.5936 35.3011 30.5617 35.188C30.1603 35.188 29.8326 35.3875 29.8293 35.6336C29.8272 35.8797 30.1506 36.0793 30.5519 36.0859C50.8495 36.1657 71.2498 36.2455 91.6296 36.3719Z" fill="#001826"/>
</svg>
